<?xml version="1.0" encoding="utf-8"?>
<!-- Generator: Adobe Illustrator 26.0.1, SVG Export Plug-In . SVG Version: 6.00 Build 0)  -->
<svg version="1.1" id="Layer_1" xmlns="http://www.w3.org/2000/svg" xmlns:xlink="http://www.w3.org/1999/xlink" x="0px" y="0px"
	 viewBox="0 0 1200 800" style="enable-background:new 0 0 1200 800;" xml:space="preserve">
<style type="text/css">
	.st0{fill:#FFFFFF;}
	.st1{fill:#E6E6E6;}
	.st2{fill:#F2F2F2;}
	.st3{fill:#D3D3D3;}
</style>
<g>
	<g>
		<path d="M260.7,617.29c-3.39-1.45-6.07-3.54-8.04-6.26c-1.97-2.72-2.99-5.94-3.04-9.65h13.04c0.17,2.49,1.06,4.47,2.65,5.91
			c1.59,1.45,3.78,2.17,6.57,2.17c2.84,0,5.07-0.68,6.7-2.04c1.62-1.36,2.43-3.14,2.43-5.35c0-1.8-0.55-3.28-1.65-4.44
			c-1.1-1.16-2.48-2.07-4.13-2.74c-1.65-0.67-3.93-1.41-6.83-2.22c-3.94-1.16-7.15-2.31-9.61-3.44c-2.46-1.13-4.58-2.84-6.35-5.13
			c-1.77-2.29-2.65-5.35-2.65-9.17c0-3.59,0.9-6.72,2.7-9.39c1.8-2.67,4.32-4.71,7.57-6.13c3.25-1.42,6.96-2.13,11.13-2.13
			c6.26,0,11.35,1.52,15.26,4.57c3.91,3.04,6.07,7.29,6.48,12.74h-13.39c-0.12-2.09-1-3.81-2.65-5.17
			c-1.65-1.36-3.84-2.04-6.57-2.04c-2.38,0-4.28,0.61-5.7,1.83c-1.42,1.22-2.13,2.99-2.13,5.3c0,1.62,0.54,2.97,1.61,4.04
			c1.07,1.07,2.41,1.94,4,2.61c1.59,0.67,3.84,1.43,6.74,2.31c3.94,1.16,7.16,2.32,9.65,3.48c2.49,1.16,4.64,2.9,6.43,5.22
			c1.8,2.32,2.7,5.36,2.7,9.13c0,3.25-0.84,6.26-2.52,9.04c-1.68,2.78-4.15,5-7.39,6.65c-3.25,1.65-7.1,2.48-11.57,2.48
			C267.9,619.46,264.09,618.74,260.7,617.29z"/>
		<path d="M341,572.37c2.84,1.59,5.06,3.94,6.65,7.04c1.59,3.1,2.39,6.83,2.39,11.17v28.26h-12.17v-26.61
			c0-3.83-0.96-6.77-2.87-8.83c-1.91-2.06-4.52-3.09-7.83-3.09c-3.36,0-6.01,1.03-7.96,3.09c-1.94,2.06-2.91,5-2.91,8.83v26.61
			h-12.17V554.5h12.17v22.17c1.56-2.09,3.65-3.72,6.26-4.91c2.61-1.19,5.51-1.78,8.7-1.78C334.91,569.98,338.16,570.78,341,572.37z"
			/>
		<path d="M362.44,562.9c-1.42-1.36-2.13-3.06-2.13-5.09c0-2.03,0.71-3.72,2.13-5.09c1.42-1.36,3.2-2.04,5.35-2.04
			c2.14,0,3.93,0.68,5.35,2.04c1.42,1.36,2.13,3.06,2.13,5.09c0,2.03-0.71,3.73-2.13,5.09c-1.42,1.36-3.2,2.04-5.35,2.04
			C365.64,564.94,363.86,564.26,362.44,562.9z M373.78,570.68v48.17h-12.17v-48.17H373.78z"/>
		<path d="M404.09,572.16c2.52-1.45,5.41-2.17,8.65-2.17v12.78h-3.22c-3.83,0-6.71,0.9-8.65,2.7c-1.94,1.8-2.91,4.93-2.91,9.39v24
			h-12.17v-48.17h12.17v7.48C399.52,575.61,401.57,573.61,404.09,572.16z"/>
		<path d="M429.78,616.55c-3.71-2.06-6.62-4.97-8.74-8.74c-2.12-3.77-3.17-8.12-3.17-13.04c0-4.93,1.09-9.27,3.26-13.04
			c2.17-3.77,5.14-6.68,8.91-8.74c3.77-2.06,7.97-3.09,12.61-3.09c4.64,0,8.84,1.03,12.61,3.09c3.77,2.06,6.74,4.97,8.91,8.74
			c2.17,3.77,3.26,8.12,3.26,13.04c0,4.93-1.12,9.28-3.35,13.04c-2.23,3.77-5.25,6.68-9.04,8.74c-3.8,2.06-8.04,3.09-12.74,3.09
			C437.67,619.64,433.49,618.61,429.78,616.55z M448.52,607.42c1.94-1.07,3.49-2.68,4.65-4.83c1.16-2.14,1.74-4.75,1.74-7.83
			c0-4.58-1.2-8.1-3.61-10.57c-2.41-2.46-5.35-3.69-8.83-3.69s-6.39,1.23-8.74,3.69c-2.35,2.47-3.52,5.99-3.52,10.57
			c0,4.58,1.14,8.1,3.44,10.57c2.29,2.47,5.17,3.7,8.65,3.7C444.51,609.03,446.58,608.49,448.52,607.42z"/>
		<path d="M517,575.42c3.53,3.62,5.3,8.68,5.3,15.17v28.26h-12.17v-26.61c0-3.83-0.96-6.77-2.87-8.83
			c-1.91-2.06-4.52-3.09-7.83-3.09c-3.36,0-6.01,1.03-7.96,3.09c-1.94,2.06-2.91,5-2.91,8.83v26.61h-12.17v-48.17h12.17v6
			c1.62-2.09,3.7-3.72,6.22-4.91c2.52-1.19,5.29-1.78,8.3-1.78C508.83,569.98,513.47,571.79,517,575.42z"/>
		<path d="M578.31,598.42h-35.22c0.29,3.48,1.51,6.2,3.65,8.17c2.14,1.97,4.78,2.96,7.91,2.96c4.52,0,7.74-1.94,9.65-5.83h13.13
			c-1.39,4.64-4.06,8.45-8,11.43c-3.94,2.99-8.78,4.48-14.52,4.48c-4.64,0-8.8-1.03-12.48-3.09c-3.68-2.06-6.55-4.97-8.61-8.74
			c-2.06-3.77-3.09-8.12-3.09-13.04c0-4.98,1.01-9.36,3.04-13.13c2.03-3.77,4.87-6.67,8.52-8.7c3.65-2.03,7.86-3.04,12.61-3.04
			c4.58,0,8.68,0.99,12.31,2.96c3.62,1.97,6.43,4.77,8.43,8.39c2,3.62,3,7.78,3,12.48C578.65,595.46,578.54,597.03,578.31,598.42z
			 M566.05,590.24c-0.06-3.13-1.19-5.64-3.39-7.52c-2.2-1.88-4.9-2.83-8.09-2.83c-3.02,0-5.55,0.91-7.61,2.74
			c-2.06,1.83-3.32,4.36-3.78,7.61H566.05z"/>
		<path d="M616.05,618.85l-16.35-20.52v20.52h-12.17V554.5h12.17v36.61l16.17-20.43h15.83l-21.22,24.17l21.39,24H616.05z"/>
		<path d="M647.18,616.55c-3.71-2.06-6.62-4.97-8.74-8.74c-2.12-3.77-3.17-8.12-3.17-13.04c0-4.93,1.09-9.27,3.26-13.04
			c2.17-3.77,5.14-6.68,8.91-8.74c3.77-2.06,7.97-3.09,12.61-3.09c4.64,0,8.84,1.03,12.61,3.09c3.77,2.06,6.74,4.97,8.91,8.74
			c2.17,3.77,3.26,8.12,3.26,13.04c0,4.93-1.12,9.28-3.35,13.04c-2.23,3.77-5.25,6.68-9.04,8.74c-3.8,2.06-8.04,3.09-12.74,3.09
			C655.06,619.64,650.89,618.61,647.18,616.55z M665.92,607.42c1.94-1.07,3.49-2.68,4.65-4.83c1.16-2.14,1.74-4.75,1.74-7.83
			c0-4.58-1.2-8.1-3.61-10.57c-2.41-2.46-5.35-3.69-8.83-3.69c-3.48,0-6.39,1.23-8.74,3.69c-2.35,2.47-3.52,5.99-3.52,10.57
			c0,4.58,1.14,8.1,3.44,10.57c2.29,2.47,5.17,3.7,8.65,3.7C661.9,609.03,663.97,608.49,665.92,607.42z"/>
		<path d="M730.05,561.72c4.81,2.43,8.49,5.94,11.04,10.52c2.55,4.58,3.83,10.03,3.83,16.35c0,6.26-1.28,11.67-3.83,16.22
			c-2.55,4.55-6.23,8.03-11.04,10.44c-4.81,2.41-10.58,3.61-17.3,3.61h-18v-60.78h18C719.47,558.07,725.23,559.29,730.05,561.72z
			 M732.09,607.16c4.43-4.44,6.65-10.62,6.65-18.57c0-8-2.22-14.25-6.65-18.74c-4.44-4.49-10.88-6.74-19.35-6.74h-11.91v50.7h11.91
			C721.2,613.81,727.65,611.59,732.09,607.16z"/>
		<path d="M756.05,561.11c-0.87-0.87-1.3-1.94-1.3-3.22c0-1.27,0.43-2.33,1.3-3.17c0.87-0.84,1.91-1.26,3.13-1.26
			c1.22,0,2.26,0.42,3.13,1.26c0.87,0.84,1.3,1.9,1.3,3.17c0,1.28-0.43,2.35-1.3,3.22c-0.87,0.87-1.91,1.3-3.13,1.3
			C757.96,562.42,756.92,561.98,756.05,561.11z M762.22,571.37v47.48h-6.09v-47.48H762.22z"/>
		<path d="M807.61,573.81c3.3,2.09,5.68,4.73,7.13,7.91v-10.35h6.09v48.7c0,4.35-0.94,8.2-2.83,11.57
			c-1.88,3.36-4.51,5.96-7.87,7.78c-3.36,1.83-7.19,2.74-11.48,2.74c-6.09,0-11.15-1.45-15.17-4.35c-4.03-2.9-6.54-6.84-7.52-11.83
			h6c1.04,3.3,3.03,5.94,5.96,7.91c2.93,1.97,6.51,2.96,10.74,2.96c3.07,0,5.83-0.65,8.26-1.96c2.44-1.3,4.35-3.23,5.74-5.78
			c1.39-2.55,2.09-5.57,2.09-9.04v-11.74c-1.51,3.25-3.9,5.93-7.17,8.04c-3.28,2.12-7.15,3.17-11.61,3.17
			c-4.35,0-8.25-1.01-11.7-3.04c-3.45-2.03-6.15-4.9-8.09-8.61c-1.94-3.71-2.91-8-2.91-12.87c0-4.87,0.97-9.14,2.91-12.83
			c1.94-3.68,4.64-6.52,8.09-8.52c3.45-2,7.35-3,11.7-3C800.42,570.68,804.31,571.72,807.61,573.81z M812.39,585.03
			c-1.56-2.9-3.7-5.13-6.39-6.7c-2.7-1.56-5.67-2.35-8.91-2.35c-3.36,0-6.38,0.75-9.04,2.26c-2.67,1.51-4.77,3.7-6.3,6.57
			c-1.54,2.87-2.3,6.28-2.3,10.22c0,3.88,0.77,7.29,2.3,10.22c1.53,2.93,3.64,5.16,6.3,6.7c2.67,1.54,5.68,2.31,9.04,2.31
			c3.25,0,6.22-0.78,8.91-2.35c2.7-1.57,4.83-3.8,6.39-6.7c1.56-2.9,2.35-6.26,2.35-10.09S813.96,587.93,812.39,585.03z"/>
		<path d="M834.65,561.11c-0.87-0.87-1.3-1.94-1.3-3.22c0-1.27,0.43-2.33,1.3-3.17c0.87-0.84,1.91-1.26,3.13-1.26
			c1.22,0,2.26,0.42,3.13,1.26c0.87,0.84,1.3,1.9,1.3,3.17c0,1.28-0.43,2.35-1.3,3.22c-0.87,0.87-1.91,1.3-3.13,1.3
			C836.57,562.42,835.52,561.98,834.65,561.11z M840.83,571.37v47.48h-6.09v-47.48H840.83z"/>
		<path d="M862.57,576.5v29.48c0,2.9,0.55,4.9,1.65,6c1.1,1.1,3.04,1.65,5.83,1.65h5.57v5.22h-6.52c-4.29,0-7.48-1-9.56-3
			c-2.09-2-3.13-5.29-3.13-9.87V576.5h-6.61v-5.13h6.61v-11.91h6.17v11.91h13.04v5.13H862.57z"/>
		<path d="M885.74,582.2c1.94-3.68,4.64-6.52,8.09-8.52c3.45-2,7.35-3,11.7-3c4.52,0,8.42,1.04,11.7,3.13
			c3.28,2.09,5.64,4.75,7.09,8v-10.44h6.09v47.48h-6.09v-10.52c-1.51,3.25-3.9,5.93-7.17,8.04c-3.28,2.12-7.17,3.17-11.7,3.17
			c-4.29,0-8.16-1.01-11.61-3.04c-3.45-2.03-6.15-4.9-8.09-8.61c-1.94-3.71-2.91-8-2.91-12.87
			C882.83,590.16,883.8,585.88,885.74,582.2z M921.96,585.03c-1.56-2.9-3.7-5.13-6.39-6.7c-2.7-1.56-5.67-2.35-8.91-2.35
			c-3.36,0-6.38,0.75-9.04,2.26c-2.67,1.51-4.77,3.7-6.3,6.57c-1.54,2.87-2.3,6.28-2.3,10.22c0,3.88,0.77,7.29,2.3,10.22
			c1.53,2.93,3.64,5.16,6.3,6.7c2.67,1.54,5.68,2.31,9.04,2.31c3.25,0,6.22-0.78,8.91-2.35c2.7-1.57,4.83-3.8,6.39-6.7
			c1.56-2.9,2.35-6.26,2.35-10.09S923.52,587.93,921.96,585.03z"/>
		<path d="M950.39,554.5v64.35h-6.09V554.5H950.39z"/>
	</g>
	<path d="M781.99,339.83c0,68.05-37.35,127.38-92.67,158.6c-5.78,3.27-11.76,6.22-17.91,8.85c-1.06,0.45-2.12,0.89-3.18,1.32
		c-21.07,8.53-44.1,13.23-68.23,13.23c-15.85,0-31.23-2.03-45.89-5.84c-9.13-2.37-17.98-5.43-26.5-9.13
		c-11.23-4.87-21.87-10.84-31.79-17.78c-47.04-32.9-77.81-87.48-77.81-149.24c0-100.51,81.48-181.99,181.99-181.99
		S781.99,239.32,781.99,339.83z"/>
	<g>
		<rect x="565.24" y="437.61" class="st0" width="9.74" height="9.74"/>
		<rect x="594.46" y="437.61" class="st0" width="9.74" height="9.74"/>
		<rect x="574.98" y="437.61" class="st0" width="9.74" height="9.74"/>
		<rect x="545.77" y="437.61" class="st0" width="9.74" height="9.74"/>
		<rect x="633.41" y="437.61" class="st1" width="9.74" height="9.74"/>
		<rect x="584.72" y="437.61" class="st0" width="9.74" height="9.74"/>
		<rect x="555.5" y="437.61" class="st0" width="9.74" height="9.74"/>
		<rect x="652.89" y="418.13" class="st0" width="9.74" height="9.74"/>
		<rect x="623.67" y="437.61" class="st1" width="9.74" height="9.74"/>
		<rect x="652.89" y="427.87" class="st2" width="9.74" height="9.74"/>
		<rect x="643.15" y="437.61" class="st0" width="9.74" height="9.74"/>
		<rect x="652.89" y="437.61" class="st1" width="9.74" height="9.74"/>
		<rect x="604.2" y="437.61" class="st0" width="9.74" height="9.74"/>
		<rect x="652.89" y="408.39" class="st0" width="9.74" height="9.74"/>
		<rect x="613.94" y="437.61" class="st0" width="9.74" height="9.74"/>
		<rect x="604.2" y="291.53" class="st0" width="9.74" height="9.74"/>
		<rect x="613.94" y="447.35" class="st2" width="9.74" height="9.74"/>
		<rect x="594.46" y="447.35" class="st2" width="9.74" height="9.74"/>
		<rect x="623.67" y="447.35" class="st0" width="9.74" height="9.74"/>
		<rect x="604.2" y="447.35" class="st0" width="9.74" height="9.74"/>
		<rect x="652.89" y="447.35" class="st0" width="9.74" height="9.74"/>
		<rect x="633.41" y="447.35" class="st0" width="9.74" height="9.74"/>
		<rect x="643.15" y="447.35" class="st2" width="9.74" height="9.74"/>
		<path class="st0" d="M532.18,447.35c-0.2,3.1-0.32,6.3-0.35,9.6c0,0.05,0,0.09,0,0.14h4.19v-9.74H532.18z"/>
		<rect x="662.63" y="447.35" class="st0" width="9.74" height="9.74"/>
		<rect x="584.72" y="447.35" class="st2" width="9.74" height="9.74"/>
		<rect x="555.5" y="447.35" class="st0" width="9.74" height="9.74"/>
		<rect x="536.03" y="447.35" class="st0" width="9.74" height="9.74"/>
		<rect x="565.24" y="447.35" class="st1" width="9.74" height="9.74"/>
		<rect x="574.98" y="447.35" class="st1" width="9.74" height="9.74"/>
		<rect x="545.77" y="447.35" class="st1" width="9.74" height="9.74"/>
		<rect x="662.63" y="359.7" class="st0" width="9.74" height="9.74"/>
		<rect x="652.89" y="398.66" class="st0" width="9.74" height="9.74"/>
		<rect x="662.63" y="379.18" class="st0" width="9.74" height="9.74"/>
		<rect x="662.63" y="349.96" class="st2" width="9.74" height="9.74"/>
		<rect x="662.63" y="340.22" class="st0" width="9.74" height="9.74"/>
		<rect x="662.63" y="388.92" class="st0" width="9.74" height="9.74"/>
		<rect x="672.37" y="447.35" class="st0" width="9.74" height="9.74"/>
		<rect x="662.63" y="398.66" class="st0" width="9.74" height="9.74"/>
		<rect x="672.37" y="437.61" class="st0" width="9.74" height="9.74"/>
		<rect x="662.63" y="427.87" class="st0" width="9.74" height="9.74"/>
		<rect x="662.63" y="437.61" class="st2" width="9.74" height="9.74"/>
		<rect x="662.63" y="418.13" class="st0" width="9.74" height="9.74"/>
		<rect x="662.63" y="408.39" class="st0" width="9.74" height="9.74"/>
		<rect x="662.63" y="369.44" class="st2" width="9.74" height="9.74"/>
		<rect x="652.89" y="311.01" class="st0" width="9.74" height="9.74"/>
		<rect x="652.89" y="320.75" class="st0" width="9.74" height="9.74"/>
		<rect x="652.89" y="330.48" class="st0" width="9.74" height="9.74"/>
		<rect x="652.89" y="301.27" class="st0" width="9.74" height="9.74"/>
		<rect x="643.15" y="291.53" class="st0" width="9.74" height="9.74"/>
		<rect x="652.89" y="291.53" class="st0" width="9.74" height="9.74"/>
		<rect x="652.89" y="379.18" class="st0" width="9.74" height="9.74"/>
		<rect x="633.41" y="291.53" class="st0" width="9.74" height="9.74"/>
		<rect x="652.89" y="388.92" class="st2" width="9.74" height="9.74"/>
		<rect x="652.89" y="369.44" class="st0" width="9.74" height="9.74"/>
		<rect x="652.89" y="349.96" class="st0" width="9.74" height="9.74"/>
		<rect x="652.89" y="340.22" class="st1" width="9.74" height="9.74"/>
		<rect x="652.89" y="359.7" class="st0" width="9.74" height="9.74"/>
		<path class="st0" d="M539.33,329.21c0.29,0.42,0.57,0.84,0.83,1.27h5.6v-9.74h-9.74v5.2c0.03,0.02,0.07,0.04,0.1,0.07
			C537.28,326.99,538.36,328.06,539.33,329.21z"/>
		<path class="st0" d="M545.77,340.22h-5.66c-0.18,0.3-0.37,0.61-0.56,0.9c0.01,0.01,0,0.01-0.01,0.01
			c-0.4,0.47-0.85,0.92-1.31,1.33c-0.39,0.25-0.79,0.49-1.21,0.71c-0.32,0.1-0.65,0.19-0.98,0.27v6.52h9.74V340.22z"/>
		<path class="st0" d="M543.62,359.7h-7.59v1.66c0.07,0,0.14-0.01,0.22-0.01C538.9,361.13,541.26,360.63,543.62,359.7z"/>
		<path class="st0" d="M545.77,358.73v-8.77h-9.74v9.74h7.59C544.33,359.42,545.04,359.09,545.77,358.73z"/>
		<path class="st0" d="M545.77,427.87v-9.74h-8.67c-0.37,1.3-0.73,2.63-1.06,3.98v5.76H545.77z"/>
		<path class="st0" d="M536.03,427.87h-1.3c-0.63,3.12-1.17,6.36-1.61,9.74h2.91V427.87z"/>
		<path class="st0" d="M536.03,422.11c-0.47,1.87-0.9,3.79-1.3,5.76h1.3V422.11z"/>
		<path class="st0" d="M536.03,437.61h-2.91c-0.4,3.13-0.72,6.38-0.94,9.74h3.84V437.61z"/>
		<rect x="536.03" y="437.61" class="st0" width="9.74" height="9.74"/>
		<rect x="613.94" y="291.53" class="st0" width="9.74" height="9.74"/>
		<rect x="623.67" y="291.53" class="st2" width="9.74" height="9.74"/>
		<path class="st0" d="M601.96,301.27h2.24v-9.74h-4.74c0,1.58,0.17,3.16,0.53,4.73C600.4,298.08,601.09,299.73,601.96,301.27z"/>
		<path class="st0" d="M545.77,311.04c-0.01-0.01-0.03-0.02-0.05-0.03h-9.69v9.74h9.74V311.04z"/>
		<path class="st0" d="M536.03,306.07v4.93h9.69C542.75,308.92,539.47,307.26,536.03,306.07z"/>
		<rect x="565.24" y="379.18" class="st0" width="9.74" height="9.74"/>
		<path class="st0" d="M618.4,346.51c-1.09,1.76-2.57,2.82-4.47,3.24v0.21h9.74v-9.74h-1.76
			C620.86,342.37,619.68,344.46,618.4,346.51z"/>
		<rect x="613.94" y="359.7" class="st0" width="9.74" height="9.74"/>
		<rect x="613.94" y="379.18" class="st2" width="9.74" height="9.74"/>
		<rect x="613.94" y="369.44" class="st0" width="9.74" height="9.74"/>
		<rect x="613.94" y="349.96" class="st3" width="9.74" height="9.74"/>
		<rect x="574.98" y="369.44" class="st0" width="9.74" height="9.74"/>
		<rect x="574.98" y="379.18" class="st0" width="9.74" height="9.74"/>
		<path class="st3" d="M623.67,340.22v-3.86c-0.54,1.31-1.13,2.6-1.76,3.86H623.67z"/>
		<path class="st0" d="M584.72,359.7h-4.63c-1.55,0.92-3.27,2.01-5.11,3.29v6.45h9.74V359.7z"/>
		<rect x="584.72" y="369.44" class="st0" width="9.74" height="9.74"/>
		<rect x="584.72" y="379.18" class="st2" width="9.74" height="9.74"/>
		<rect x="584.72" y="398.66" class="st0" width="9.74" height="9.74"/>
		<rect x="584.72" y="388.92" class="st0" width="9.74" height="9.74"/>
		<rect x="574.98" y="388.92" class="st0" width="9.74" height="9.74"/>
		<rect x="594.46" y="398.66" class="st2" width="9.74" height="9.74"/>
		<rect x="613.94" y="398.66" class="st0" width="9.74" height="9.74"/>
		<rect x="584.72" y="359.7" class="st3" width="9.74" height="9.74"/>
		<rect x="613.94" y="388.92" class="st0" width="9.74" height="9.74"/>
		<rect x="604.2" y="398.66" class="st0" width="9.74" height="9.74"/>
		<rect x="623.67" y="359.7" class="st0" width="9.74" height="9.74"/>
		<rect x="623.67" y="340.22" class="st0" width="9.74" height="9.74"/>
		<polygon class="st0" points="690.25,242.84 690.25,242.84 682.11,242.84 682.11,242.84 		"/>
		<rect x="623.67" y="369.44" class="st2" width="9.74" height="9.74"/>
		<path class="st0" d="M626.13,329.21c-0.12,0.43-0.25,0.85-0.37,1.27h7.65v-9.74h-7.07C626.78,323.57,626.89,326.42,626.13,329.21z
			"/>
		<path class="st0" d="M574.98,369.44h-8.15c-0.53,0.47-1.05,0.95-1.59,1.44v8.3h9.74V369.44z"/>
		<rect x="623.67" y="379.18" class="st0" width="9.74" height="9.74"/>
		<path class="st0" d="M623.67,336.36v3.86h9.74v-9.74h-7.65C625.17,332.49,624.47,334.44,623.67,336.36z"/>
		<rect x="574.98" y="408.39" class="st0" width="9.74" height="9.74"/>
		<rect x="604.2" y="408.39" class="st0" width="9.74" height="9.74"/>
		<rect x="623.67" y="388.92" class="st0" width="9.74" height="9.74"/>
		<rect x="594.46" y="408.39" class="st0" width="9.74" height="9.74"/>
		<rect x="574.98" y="398.66" class="st3" width="9.74" height="9.74"/>
		<rect x="584.72" y="408.39" class="st0" width="9.74" height="9.74"/>
		<rect x="613.94" y="408.39" class="st1" width="9.74" height="9.74"/>
		<rect x="662.63" y="330.48" class="st0" width="9.74" height="9.74"/>
		<rect x="623.67" y="408.39" class="st1" width="9.74" height="9.74"/>
		<rect x="623.67" y="398.66" class="st0" width="9.74" height="9.74"/>
		<path class="st0" d="M488.17,320.75h8.91v-7.73C493.87,315.31,490.88,317.92,488.17,320.75z"/>
		<path class="st0" d="M500.08,311.01h6.73v-3.53C504.49,308.48,502.24,309.66,500.08,311.01z"/>
		<path class="st0" d="M652.89,246.29v6.29h5.33C656.36,250.55,654.65,248.39,652.89,246.29z"/>
		<rect x="691.84" y="388.92" class="st0" width="9.74" height="9.74"/>
		<path class="st0" d="M691.84,249.37v3.2h0.39C692.15,251.49,692.02,250.43,691.84,249.37z"/>
		<path class="st0" d="M604.2,277.11c-1.14,0.54-2.27,1.11-3.28,1.89c-1.03,0.78-1.62,1.73-1.78,2.8h5.06V277.11z"/>
		<path class="st0" d="M525.95,359.7c0.11,0.04,0.22,0.08,0.33,0.12v-0.12H525.95z"/>
		<path class="st0" d="M520.03,339.13c-0.81,0.22-1.64,0.6-2.41,1.1h8.68v-0.56C524.47,338.72,521.84,338.63,520.03,339.13z"/>
		<rect x="623.67" y="262.31" class="st0" width="9.74" height="9.74"/>
		<path class="st0" d="M613.94,272.04c-0.01,0-0.01,0.01-0.02,0.01h0.02V272.04z"/>
		<path class="st0" d="M672.37,237.06c-0.84,1.9-1.59,3.85-2.35,5.78h2.35V237.06z"/>
		<path class="st2" d="M662.63,512.33c1.79-0.66,3.56-1.33,5.32-2.05c-0.7-1.46-1.29-2.97-1.81-4.51h-3.51V512.33z"/>
		<path class="st0" d="M645.28,236.99c-0.68,2.03-0.2,3.77,0.23,5.51c0.03,0.11,0.06,0.23,0.09,0.34h4.35
			C648.42,240.96,646.91,239,645.28,236.99z"/>
		<path class="st0" d="M482.83,476.56c1.45,1.9,2.95,3.76,4.5,5.58v-5.58H482.83z"/>
		<path class="st0" d="M491.07,486.3c0.41,0.44,0.82,0.87,1.24,1.3c1.06,1.08,2.13,2.14,3.23,3.16c0.51,0.35,1.02,0.69,1.53,1.04
			v-5.5H491.07z"/>
		<rect x="526.29" y="496.04" class="st0" width="9.74" height="9.74"/>
		<path class="st0" d="M486.17,322.91c-2.15,2.43-4.15,4.96-6.03,7.58h7.2v-8.86C486.94,322.05,486.55,322.48,486.17,322.91z"/>
		<path class="st0" d="M682.11,503.82c2.34-1.19,4.66-2.41,6.94-3.7c-0.41-1.35-0.69-2.71-0.86-4.08h-6.08V503.82z"/>
		<path class="st0" d="M580.09,359.7h4.63v-2.52C583.45,357.81,581.89,358.64,580.09,359.7z"/>
		<rect x="604.2" y="388.92" class="st1" width="9.74" height="9.74"/>
		<rect x="604.2" y="379.18" class="st0" width="9.74" height="9.74"/>
		<rect x="604.2" y="369.44" class="st0" width="9.74" height="9.74"/>
		<path class="st0" d="M540.17,330.48c0.33,0.53,0.65,1.08,0.93,1.64c0.18,0.55,0.33,1.11,0.45,1.68c0.04,0.8,0.04,1.61-0.01,2.4
			c-0.19,0.96-0.45,1.9-0.78,2.82c-0.2,0.41-0.43,0.81-0.66,1.2h5.66v-9.74H540.17z"/>
		<path class="st0" d="M604.2,350.8v8.9l9.74,0v-9.74h-1.56C609.63,350.11,606.91,350.37,604.2,350.8z"/>
		<path class="st0" d="M612.37,349.96h1.56v-0.21c-0.45,0.1-0.91,0.18-1.41,0.2C612.48,349.96,612.42,349.96,612.37,349.96z"/>
		<rect x="604.2" y="359.7" class="st1" width="9.74" height="9.74"/>
		<rect x="594.46" y="379.18" class="st0" width="9.74" height="9.74"/>
		<rect x="594.46" y="388.92" class="st0" width="9.74" height="9.74"/>
		<rect x="594.46" y="369.44" class="st0" width="9.74" height="9.74"/>
		<path class="st0" d="M550.18,388.92h5.32v-7.45C553.69,383.76,551.91,386.24,550.18,388.92z"/>
		<rect x="545.77" y="398.66" class="st0" width="9.74" height="9.74"/>
		<path class="st0" d="M566.83,369.44h8.15v-6.45C572.45,364.76,569.69,366.9,566.83,369.44z"/>
		<path class="st0" d="M557.37,379.18h7.87v-8.3C562.65,373.3,559.99,376.05,557.37,379.18z"/>
		<rect x="594.46" y="359.7" class="st0" width="9.74" height="9.74"/>
		<path class="st1" d="M594.46,353.19c-2.16,0.72-4.26,1.53-6.29,2.46c0,0-0.02,0.01-0.04,0.02c-0.23,0.09-1.46,0.56-3.4,1.52v2.52
			h9.74V353.19z"/>
		<path class="st1" d="M604.2,350.8c-1.6,0.25-3.18,0.56-4.76,0.95c-1.7,0.41-3.35,0.9-4.97,1.44v6.51h9.74V350.8z"/>
		<rect x="643.15" y="340.22" class="st0" width="9.74" height="9.74"/>
		<rect x="643.15" y="369.44" class="st0" width="9.74" height="9.74"/>
		<rect x="643.15" y="359.7" class="st2" width="9.74" height="9.74"/>
		<rect x="643.15" y="301.27" class="st0" width="9.74" height="9.74"/>
		<rect x="643.15" y="379.18" class="st1" width="9.74" height="9.74"/>
		<rect x="643.15" y="330.48" class="st0" width="9.74" height="9.74"/>
		<rect x="643.15" y="320.75" class="st1" width="9.74" height="9.74"/>
		<rect x="643.15" y="311.01" class="st0" width="9.74" height="9.74"/>
		<rect x="643.15" y="388.92" class="st0" width="9.74" height="9.74"/>
		<rect x="536.03" y="427.87" class="st3" width="9.74" height="9.74"/>
		<rect x="643.15" y="349.96" class="st0" width="9.74" height="9.74"/>
		<rect x="633.41" y="427.87" class="st0" width="9.74" height="9.74"/>
		<rect x="623.67" y="427.87" class="st0" width="9.74" height="9.74"/>
		<rect x="643.15" y="398.66" class="st0" width="9.74" height="9.74"/>
		<rect x="604.2" y="427.87" class="st3" width="9.74" height="9.74"/>
		<rect x="613.94" y="427.87" class="st0" width="9.74" height="9.74"/>
		<rect x="643.15" y="408.39" class="st3" width="9.74" height="9.74"/>
		<rect x="643.15" y="427.87" class="st0" width="9.74" height="9.74"/>
		<rect x="643.15" y="418.13" class="st0" width="9.74" height="9.74"/>
		<path class="st0" d="M545.77,398.65h-1.14c-1.52,3.05-2.96,6.29-4.28,9.74h5.43V398.65z"/>
		<path class="st0" d="M552.09,353.85c1.09-1.22,2.06-2.52,2.92-3.89h-9.24v8.77c0.06-0.03,0.12-0.06,0.18-0.09
			C548.23,357.47,550.38,355.77,552.09,353.85z"/>
		<path class="st0" d="M545.77,396.43c-0.39,0.73-0.77,1.47-1.14,2.22h1.14V396.43z"/>
		<path class="st1" d="M555.5,398.66v-9.74h-5.32c-0.92,1.42-1.83,2.89-2.71,4.43c-0.58,1-1.15,2.03-1.71,3.09v2.22L555.5,398.66z"
			/>
		<path class="st0" d="M540.34,408.39c-1.18,3.08-2.27,6.32-3.25,9.74h8.67v-9.74H540.34z"/>
		<rect x="594.46" y="427.87" class="st0" width="9.74" height="9.74"/>
		<rect x="545.77" y="427.87" class="st0" width="9.74" height="9.74"/>
		<rect x="545.77" y="408.39" class="st0" width="9.74" height="9.74"/>
		<rect x="545.77" y="418.13" class="st0" width="9.74" height="9.74"/>
		<path class="st3" d="M555.5,349.14v-8.91l-9.74,0v9.74h9.24C555.18,349.69,555.34,349.41,555.5,349.14z"/>
		<rect x="613.94" y="301.27" class="st3" width="9.74" height="9.74"/>
		<path class="st0" d="M607.11,308.11c1.02,1.16,2.17,2.12,3.42,2.9h3.4v-9.74l-9.74,0v3.34
			C605.11,305.8,606.11,306.96,607.11,308.11z"/>
		<rect x="623.67" y="301.27" class="st0" width="9.74" height="9.74"/>
		<path class="st0" d="M604.2,301.27h-2.24c0.66,1.16,1.42,2.27,2.24,3.34V301.27z"/>
		<path class="st0" d="M545.77,311.04v9.71l9.37,0C552.67,316.91,549.46,313.64,545.77,311.04z"/>
		<rect x="633.41" y="301.27" class="st0" width="9.74" height="9.74"/>
		<rect x="545.77" y="330.48" class="st0" width="9.74" height="9.74"/>
		<path class="st2" d="M555.5,321.33c-0.12-0.2-0.25-0.39-0.37-0.59l-9.37,0v9.74l9.74,0V321.33z"/>
		<rect x="584.72" y="418.13" class="st1" width="9.74" height="9.74"/>
		<rect x="633.41" y="388.92" class="st3" width="9.74" height="9.74"/>
		<rect x="633.41" y="408.39" class="st0" width="9.74" height="9.74"/>
		<rect x="623.67" y="418.13" class="st0" width="9.74" height="9.74"/>
		<rect x="633.41" y="418.13" class="st2" width="9.74" height="9.74"/>
		<rect x="633.41" y="398.66" class="st0" width="9.74" height="9.74"/>
		<rect x="633.41" y="349.96" class="st0" width="9.74" height="9.74"/>
		<rect x="633.41" y="379.18" class="st0" width="9.74" height="9.74"/>
		<rect x="633.41" y="359.7" class="st0" width="9.74" height="9.74"/>
		<rect x="633.41" y="369.44" class="st0" width="9.74" height="9.74"/>
		<rect x="594.46" y="418.13" class="st0" width="9.74" height="9.74"/>
		<rect x="565.24" y="408.39" class="st2" width="9.74" height="9.74"/>
		<rect x="565.24" y="418.13" class="st0" width="9.74" height="9.74"/>
		<rect x="613.94" y="418.13" class="st2" width="9.74" height="9.74"/>
		<rect x="565.24" y="398.66" class="st2" width="9.74" height="9.74"/>
		<rect x="574.98" y="418.13" class="st0" width="9.74" height="9.74"/>
		<rect x="604.2" y="418.13" class="st0" width="9.74" height="9.74"/>
		<rect x="565.24" y="388.92" class="st3" width="9.74" height="9.74"/>
		<rect x="633.41" y="340.22" class="st0" width="9.74" height="9.74"/>
		<path class="st0" d="M558.98,330.48h-3.48v9.74h3.35C559.48,337.02,559.54,333.71,558.98,330.48z"/>
		<rect x="555.5" y="418.13" class="st0" width="9.74" height="9.74"/>
		<rect x="633.41" y="330.48" class="st0" width="9.74" height="9.74"/>
		<rect x="555.5" y="398.66" class="st0" width="9.74" height="9.74"/>
		<rect x="555.5" y="388.92" class="st0" width="9.74" height="9.74"/>
		<rect x="574.98" y="427.87" class="st0" width="9.74" height="9.74"/>
		<path class="st0" d="M565.24,379.18h-7.87c-0.62,0.74-1.25,1.5-1.86,2.28v7.45h9.74V379.18z"/>
		<rect x="565.24" y="427.87" class="st0" width="9.74" height="9.74"/>
		<rect x="555.5" y="427.87" class="st1" width="9.74" height="9.74"/>
		<rect x="555.5" y="408.39" class="st2" width="9.74" height="9.74"/>
		<path class="st0" d="M625.88,318.22c0.17,0.84,0.33,1.68,0.46,2.53h7.07v-9.74h-9.74v4.01
			C624.8,315.7,625.57,316.75,625.88,318.22z"/>
		<path class="st0" d="M615.06,312.9c2.08,0.52,4.18,0.96,6.3,1.31c0.88,0.14,1.66,0.41,2.31,0.81v-4.01h-9.74v1.57
			C614.3,312.7,614.68,312.81,615.06,312.9z"/>
		<rect x="633.41" y="311.01" class="st0" width="9.74" height="9.74"/>
		<rect x="633.41" y="320.75" class="st2" width="9.74" height="9.74"/>
		<rect x="584.72" y="427.87" class="st3" width="9.74" height="9.74"/>
		<path class="st0" d="M555.5,340.22v8.91c1.61-2.78,2.75-5.8,3.35-8.91H555.5z"/>
		<path class="st0" d="M613.94,311.01h-3.4c1.06,0.65,2.19,1.18,3.4,1.57V311.01z"/>
		<path class="st0" d="M556.1,322.35c-0.19-0.34-0.39-0.68-0.6-1.02v9.15h3.48C558.5,327.68,557.55,324.93,556.1,322.35z"/>
		<rect x="623.67" y="349.96" class="st0" width="9.74" height="9.74"/>
		<path class="st0" d="M686.16,233.12c-0.3-0.58-0.6-1.16-0.9-1.73c-0.97-1.81-2.03-2.98-3.15-3.54v5.27H686.16z"/>
		<rect x="555.5" y="486.3" class="st0" width="9.74" height="9.74"/>
		<rect x="536.03" y="486.3" class="st0" width="9.74" height="9.74"/>
		<path class="st0" d="M518.03,486.3h-1.48v9.74h9.74v-4.49C523.45,489.94,520.7,488.18,518.03,486.3z"/>
		<path class="st1" d="M530.97,486.3c-0.18,2.72-0.39,5.19-0.63,7.44c-1.37-0.7-2.72-1.43-4.06-2.19v4.49h9.74v-9.74H530.97z"/>
		<rect x="584.72" y="496.04" class="st0" width="9.74" height="9.74"/>
		<rect x="574.98" y="496.04" class="st0" width="9.74" height="9.74"/>
		<rect x="565.24" y="496.04" class="st1" width="9.74" height="9.74"/>
		<rect x="565.24" y="486.3" class="st0" width="9.74" height="9.74"/>
		<path class="st0" d="M497.33,466.31c-0.09-0.12-0.17-0.23-0.26-0.35v0.86h0.67C497.61,466.65,497.46,466.49,497.33,466.31z"/>
		<path class="st0" d="M506.81,476.83c-0.09-0.09-0.18-0.18-0.27-0.26h-9.47v9.74h9.74V476.83z"/>
		<path class="st0" d="M663.33,252.58h9.03v-9.74h-2.35c-0.09,0.22-0.17,0.45-0.26,0.67C668.33,247.12,666.16,250.08,663.33,252.58z
			"/>
		<path class="st0" d="M497.75,466.83h-0.67v9.74h9.47C503.42,473.5,500.48,470.24,497.75,466.83z"/>
		<rect x="506.81" y="486.3" class="st0" width="9.74" height="9.74"/>
		<path class="st2" d="M682.11,242.84h8.15c-1.07-3.33-2.48-6.56-4.1-9.71h-4.05V242.84z"/>
		<path class="st0" d="M506.81,486.3h-9.74v5.5c2.13,1.45,4.28,2.87,6.47,4.24h3.27V486.3z"/>
		<path class="st3" d="M506.81,498.04c3.18,1.89,6.43,3.68,9.74,5.38v-7.38h-9.74V498.04z"/>
		<path class="st0" d="M503.54,496.04c1.08,0.68,2.17,1.34,3.27,2v-2H503.54z"/>
		<rect x="545.77" y="486.3" class="st0" width="9.74" height="9.74"/>
		<path class="st0" d="M711.32,374.5c0.38-1.74,0.7-3.43,0.96-5.06h-0.96V374.5z"/>
		<path class="st0" d="M688.31,488.96c0.13-0.88,0.21-1.77,0.27-2.66h-6.47v9.74h6.08C687.91,493.72,687.96,491.37,688.31,488.96z"
			/>
		<path class="st0" d="M701.58,369.44v9.74h8.6c0.43-1.6,0.81-3.16,1.14-4.68v-5.06H701.58z"/>
		<path class="st0" d="M711.32,359.7h1.92c0.13-3.62-0.04-6.87-0.37-9.74h-1.55V359.7z"/>
		<path class="st0" d="M711.32,369.44h0.96c0.56-3.5,0.86-6.75,0.97-9.74h-1.92V369.44z"/>
		<path class="st0" d="M691.84,252.58v-3.2c-0.36-2.23-0.91-4.41-1.59-6.54h-8.15v9.74H691.84z"/>
		<path class="st0" d="M712.87,349.96c-0.36-3.11-0.93-5.77-1.55-7.99v7.99H712.87z"/>
		<rect x="672.37" y="242.84" class="st2" width="9.74" height="9.74"/>
		<path class="st0" d="M710.74,340.22h-9.15v9.74h9.74v-7.99c-0.1-0.34-0.19-0.68-0.29-1C710.93,340.72,710.83,340.47,710.74,340.22
			z"/>
		<rect x="613.94" y="496.04" class="st0" width="9.74" height="9.74"/>
		<rect x="623.67" y="496.04" class="st0" width="9.74" height="9.74"/>
		<rect x="633.41" y="496.04" class="st3" width="9.74" height="9.74"/>
		<rect x="672.37" y="486.3" class="st0" width="9.74" height="9.74"/>
		<rect x="604.2" y="496.04" class="st0" width="9.74" height="9.74"/>
		<rect x="633.41" y="486.3" class="st0" width="9.74" height="9.74"/>
		<rect x="643.15" y="486.3" class="st0" width="9.74" height="9.74"/>
		<path class="st0" d="M662.63,486.3v9.74h1.26c-0.13-0.89-0.26-1.78-0.37-2.68c1.04,0.69,1.35,1.59,1.55,2.43
			c0.02,0.08,0.04,0.17,0.06,0.25h7.24v-9.74H662.63z"/>
		<rect x="652.89" y="486.3" class="st0" width="9.74" height="9.74"/>
		<rect x="594.46" y="496.04" class="st0" width="9.74" height="9.74"/>
		<path class="st0" d="M701.58,398.66h1.47c1.54-3.38,2.88-6.63,4.03-9.74h-5.5V398.66z"/>
		<path class="st0" d="M477.59,359.7v-9.74l-8.55,0c-0.41,0.92-0.81,1.84-1.19,2.76v6.97L477.59,359.7z"/>
		<rect x="701.58" y="349.96" class="st1" width="9.74" height="9.74"/>
		<path class="st0" d="M691.84,398.66v9.74h6.81c0.91-2.09,1.89-4.27,2.93-6.54v-3.2H691.84z"/>
		<path class="st0" d="M701.58,401.85c0.35-0.77,0.71-1.55,1.08-2.34c0.13-0.29,0.26-0.57,0.39-0.86h-1.47V401.85z"/>
		<rect x="701.58" y="359.7" class="st0" width="9.74" height="9.74"/>
		<rect x="691.84" y="359.7" class="st0" width="9.74" height="9.74"/>
		<rect x="691.84" y="379.18" class="st0" width="9.74" height="9.74"/>
		<rect x="691.84" y="369.44" class="st0" width="9.74" height="9.74"/>
		<path class="st0" d="M707.08,388.92c1.25-3.4,2.27-6.65,3.1-9.74h-8.6v9.74H707.08z"/>
		<path class="st0" d="M467.86,408.39h-9.59c0.15,3.25,0.43,6.5,0.83,9.74h8.76V408.39z"/>
		<path class="st1" d="M467.86,398.65h-9.68c-0.09,3.24-0.06,6.49,0.09,9.74h9.59V398.65z"/>
		<path class="st0" d="M467.86,418.13h-8.76c0.41,3.27,0.94,6.52,1.6,9.74h7.16V418.13z"/>
		<path class="st0" d="M467.86,388.92h-9.06c-0.3,3.02-0.5,6.05-0.6,9.07c-0.01,0.22-0.01,0.45-0.02,0.67h9.68V388.92z"/>
		<path class="st2" d="M467.86,369.44h-5.63c-0.83,3.21-1.53,6.46-2.1,9.74h7.73V369.44z"/>
		<path class="st0" d="M467.86,359.7h-2.68c-1.12,3.2-2.11,6.45-2.95,9.74h5.63V359.7z"/>
		<path class="st0" d="M467.86,352.73c-0.82,1.96-1.59,3.93-2.31,5.92c-0.13,0.35-0.25,0.7-0.37,1.05h2.68V352.73z"/>
		<path class="st0" d="M467.86,379.18h-7.73c-0.56,3.23-1.01,6.48-1.33,9.74h9.06V379.18z"/>
		<path class="st0" d="M506.81,311.01h-6.73c-1.02,0.64-2.03,1.31-3.01,2.01v7.73h9.74V311.01z"/>
		<path class="st0" d="M662.63,262.31h9.74v-9.74h-9.03c-0.23,0.2-0.47,0.4-0.71,0.59V262.31z"/>
		<rect x="682.11" y="252.58" class="st2" width="9.74" height="9.74"/>
		<rect x="672.37" y="252.58" class="st0" width="9.74" height="9.74"/>
		<path class="st0" d="M644.34,254.49c-0.39,0.03-0.79,0.06-1.19,0.1v7.73h9.74v-9.74h-5.11
			C647.45,253.8,646.42,254.3,644.34,254.49z"/>
		<path class="st0" d="M662.63,262.31v-9.14c-0.27,0.22-0.54,0.45-0.83,0.67c-0.95,0.72-1.59,0.82-2.48-0.1
			c-0.37-0.38-0.74-0.77-1.1-1.16h-5.33v9.74L662.63,262.31z"/>
		<path class="st0" d="M503.77,330.48h-6.7v7.08C499.14,335.06,501.36,332.68,503.77,330.48z"/>
		<path class="st0" d="M672.37,242.84h9.74v-9.71h-7.74c-0.74,1.27-1.4,2.59-2,3.93V242.84z"/>
		<path class="st0" d="M682.11,227.86c-1.99-0.98-4.15,0.02-6.29,3c-0.53,0.73-1,1.49-1.45,2.27h7.74V227.86z"/>
		<path class="st0" d="M506.33,328.28C506.33,328.28,506.33,328.27,506.33,328.28c0.16-0.12,0.32-0.22,0.48-0.33v-7.2h-9.74v9.74
			h6.7C504.6,329.73,505.45,328.99,506.33,328.28z"/>
		<path class="st0" d="M693.15,262.31c-0.4-2.62-0.71-5.25-0.8-7.88c-0.02-0.62-0.06-1.24-0.11-1.86h-0.39v9.74H693.15z"/>
		<rect x="691.84" y="330.48" class="st0" width="9.74" height="9.74"/>
		<path class="st0" d="M701.58,340.22h9.15c-0.85-2.19-1.79-4.35-2.82-6.47c-0.01-0.01-0.01-0.01-0.01-0.01
			c-0.53-1.1-1.1-2.18-1.67-3.25h-4.65V340.22z"/>
		<path class="st0" d="M701.58,330.48h4.65c-0.29-0.53-0.57-1.07-0.86-1.59c-1.16-2.05-1.52-3.92,0.02-5.98
			c0.51-0.68,0.91-1.4,1.07-2.17h-4.88V330.48z"/>
		<rect x="691.84" y="340.22" class="st0" width="9.74" height="9.74"/>
		<rect x="691.84" y="349.96" class="st0" width="9.74" height="9.74"/>
		<path class="st0" d="M691.84,301.27v9.74h9.74v-8.87c-0.07-0.29-0.14-0.58-0.2-0.86H691.84z"/>
		<path class="st0" d="M703.39,311.01c-0.13-0.57-0.26-1.14-0.36-1.72c-0.43-2.4-0.91-4.79-1.45-7.16v8.87H703.39z"/>
		<path class="st0" d="M701.58,320.75h4.88c0.17-0.81,0.09-1.66-0.41-2.59c-1.22-2.26-2.08-4.67-2.66-7.15h-1.81V320.75z"/>
		<path class="st0" d="M497.07,465.96c-2.14-2.86-4.14-5.83-6-8.88h-3.74v9.74h9.74V465.96z"/>
		<path class="st0" d="M526.29,496.04h-9.74v7.38c1.57,0.81,3.16,1.59,4.75,2.36h4.99V496.04z"/>
		<rect x="536.03" y="496.04" class="st0" width="9.74" height="9.74"/>
		<path class="st3" d="M526.29,505.78v2.3c0.35,0.15,0.69,0.32,1.04,0.47c2.86,1.24,5.76,2.4,8.69,3.5v-6.27H526.29z"/>
		<path class="st0" d="M521.3,505.78c1.65,0.79,3.31,1.56,4.99,2.3v-2.3H521.3z"/>
		<path class="st0" d="M536.03,512.05c3.2,1.2,6.45,2.31,9.74,3.33v-9.59h-9.74V512.05z"/>
		<rect x="555.5" y="505.78" class="st3" width="9.74" height="9.74"/>
		<rect x="565.24" y="505.78" class="st0" width="9.74" height="9.74"/>
		<rect x="555.5" y="496.04" class="st0" width="9.74" height="9.74"/>
		<rect x="545.77" y="496.04" class="st0" width="9.74" height="9.74"/>
		<rect x="467.86" y="359.7" class="st0" width="9.74" height="9.74"/>
		<path class="st1" d="M497.07,486.3v-9.74h-9.74v5.58c1.21,1.42,2.46,2.8,3.74,4.16H497.07z"/>
		<rect x="574.98" y="505.78" class="st0" width="9.74" height="9.74"/>
		<path class="st0" d="M480.77,369.44c0.99-3.29,2.13-6.54,3.42-9.74h-6.59v9.74H480.77z"/>
		<rect x="487.33" y="466.83" class="st1" width="9.74" height="9.74"/>
		<path class="st0" d="M477.59,334.2c-1.29,1.97-2.51,3.98-3.66,6.03h3.66V334.2z"/>
		<path class="st0" d="M473.94,340.22c-1.78,3.16-3.41,6.42-4.89,9.74l8.55,0v-9.74H473.94z"/>
		<rect x="477.59" y="340.22" class="st0" width="9.74" height="9.74"/>
		<path class="st1" d="M484.5,358.91c0.88-2.02,1.83-4.01,2.83-5.97v-2.98h-9.74v9.74h6.59C484.3,359.44,484.39,359.17,484.5,358.91
			z"/>
		<rect x="652.89" y="496.04" class="st0" width="9.74" height="9.74"/>
		<path class="st0" d="M672.37,508.42c1.94-0.85,3.86-1.73,5.77-2.64h-5.77V508.42z"/>
		<path class="st0" d="M669.79,505.78c0.5,1.04,0.95,2.11,1.35,3.19c0.41-0.18,0.82-0.37,1.23-0.55v-2.64H669.79z"/>
		<path class="st0" d="M672.37,496.04h-7.24c0.51,2.13,1.29,4.16,2.52,5.98c0.82,1.21,1.52,2.47,2.13,3.76h2.58V496.04z"/>
		<path class="st0" d="M662.63,496.04v9.74h3.51c-1.04-3.1-1.74-6.36-2.25-9.74H662.63z"/>
		<path class="st0" d="M487.33,340.22v-9.74h-7.2c-0.88,1.22-1.72,2.46-2.54,3.71v6.03H487.33z"/>
		<polygon class="st0" points="672.37,242.84 672.37,242.84 670.02,242.84 670.02,242.84 		"/>
		<rect x="672.37" y="242.84" class="st0" width="9.74" height="0"/>
		<path class="st2" d="M682.11,496.04h-9.74v9.74h5.77c1.33-0.64,2.65-1.29,3.97-1.96V496.04z"/>
		<polygon class="st0" points="649.96,242.84 649.96,242.84 645.61,242.84 645.61,242.84 		"/>
		<path class="st0" d="M467.86,427.87h-7.16c0.67,3.28,1.47,6.54,2.41,9.74h4.75V427.87z"/>
		<rect x="604.2" y="505.78" class="st0" width="9.74" height="9.74"/>
		<rect x="613.94" y="505.78" class="st0" width="9.74" height="9.74"/>
		<rect x="584.72" y="505.78" class="st0" width="9.74" height="9.74"/>
		<rect x="623.67" y="505.78" class="st0" width="9.74" height="9.74"/>
		<rect x="594.46" y="505.78" class="st3" width="9.74" height="9.74"/>
		<rect x="633.41" y="505.78" class="st0" width="9.74" height="9.74"/>
		<rect x="643.15" y="496.04" class="st0" width="9.74" height="9.74"/>
		<rect x="643.15" y="505.78" class="st0" width="9.74" height="9.74"/>
		<path class="st0" d="M476.9,417.03c-0.35-2.87-0.59-5.75-0.74-8.64l-8.3,0v9.74l9.22,0C477.02,417.76,476.95,417.4,476.9,417.03z"
			/>
		<path class="st0" d="M555.5,515.52v2.58c3.21,0.8,6.46,1.52,9.74,2.15v-4.73H555.5z"/>
		<path class="st1" d="M584.72,515.52v7.38c3.22,0.26,6.47,0.44,9.74,0.53v-7.92H584.72z"/>
		<path class="st1" d="M574.98,515.52v6.32c3.22,0.44,6.47,0.8,9.74,1.06v-7.38H574.98z"/>
		<path class="st0" d="M546.24,515.52c2.51,0.77,5.04,1.49,7.6,2.16c0.55,0.14,1.11,0.28,1.67,0.42v-2.58L546.24,515.52z"/>
		<path class="st0" d="M565.24,515.52v4.73c3.22,0.62,6.46,1.15,9.74,1.59v-6.32H565.24z"/>
		<path class="st0" d="M495.05,340.22h-7.72v9.74h1.58C490.77,346.6,492.81,343.34,495.05,340.22z"/>
		<path class="st2" d="M496.16,338.69c0.3-0.38,0.61-0.75,0.91-1.12v-7.08h-9.74v9.74h7.72
			C495.42,339.71,495.78,339.2,496.16,338.69z"/>
		<path class="st0" d="M555.5,505.78l-9.74,0v9.59c0.16,0.05,0.32,0.1,0.47,0.15l9.27,0V505.78z"/>
		<path class="st2" d="M497.07,320.75h-8.91c-0.28,0.29-0.56,0.58-0.83,0.88v8.86h9.74V320.75z"/>
		<path class="st0" d="M487.33,349.96v2.98c0.51-1,1.04-1.99,1.58-2.98H487.33z"/>
		<path class="st0" d="M633.41,515.52v4.87c3.28-0.61,6.53-1.31,9.74-2.09v-2.78H633.41z"/>
		<path class="st0" d="M643.15,515.52v2.78c3.28-0.8,6.53-1.7,9.74-2.68v-0.09H643.15z"/>
		<path class="st0" d="M652.89,515.61c0.1-0.03,0.2-0.06,0.3-0.09h-0.3V515.61z"/>
		<path class="st2" d="M662.63,505.78l-9.74,0v9.74h0.3c3.18-0.98,6.33-2.04,9.43-3.18V505.78z"/>
		<path class="st1" d="M623.67,515.52v6.42c3.27-0.43,6.52-0.95,9.74-1.55v-4.87H623.67z"/>
		<path class="st0" d="M594.46,515.52v7.92c1.75,0.05,3.5,0.08,5.27,0.08c1.5,0,2.99-0.02,4.47-0.05v-7.94H594.46z"/>
		<path class="st2" d="M604.2,515.52v7.94c3.27-0.08,6.51-0.25,9.74-0.5v-7.44H604.2z"/>
		<path class="st2" d="M613.94,515.52v7.44c3.27-0.25,6.52-0.6,9.74-1.02v-6.42H613.94z"/>
		<path class="st0" d="M476.7,388.92h-8.84v9.74h8.18C476.12,395.4,476.35,392.15,476.7,388.92z"/>
		<path class="st0" d="M477.59,427.87v9.74h4.24c-1.09-3.2-2.03-6.45-2.83-9.74H477.59z"/>
		<path class="st0" d="M647.78,252.58h5.11v-6.29c-0.45-0.53-0.89-1.06-1.35-1.58c-0.53-0.61-1.06-1.24-1.58-1.87h-4.35
			c0.66,2.43,1.8,4.72,2.17,7.24C647.93,251.14,647.95,251.95,647.78,252.58z"/>
		<path class="st0" d="M477.59,421.24v6.63H479C478.47,425.68,478,423.46,477.59,421.24z"/>
		<path class="st0" d="M477.59,421.24c-0.19-1.03-0.36-2.07-0.52-3.11l-9.22,0v9.74h9.74V421.24z"/>
		<path class="st0" d="M482.83,476.56h4.5v-9.74h-9.74v2.37c0.72,1.1,1.46,2.19,2.22,3.26C480.79,473.84,481.8,475.21,482.83,476.56
			z"/>
		<rect x="467.86" y="427.87" class="st2" width="9.74" height="9.74"/>
		<rect x="467.86" y="369.44" class="st0" width="9.74" height="9.74"/>
		<path class="st0" d="M476.03,398.65h-8.18v9.74l8.3,0C475.99,405.15,475.94,401.9,476.03,398.65z"/>
		<path class="st0" d="M487.33,450.45v6.64h3.74C489.75,454.92,488.5,452.7,487.33,450.45z"/>
		<path class="st3" d="M476.9,387.04c0.2-1.43,0.44-2.85,0.7-4.28v-3.59h-9.74v9.74h8.84C476.76,388.29,476.82,387.66,476.9,387.04z
			"/>
		<path class="st0" d="M477.59,457.09h-6.91c1.65,3.33,3.45,6.59,5.4,9.74h1.51V457.09z"/>
		<path class="st0" d="M480.77,369.44h-3.18v9.74h0.7C478.98,375.9,479.81,372.65,480.77,369.44z"/>
		<path class="st0" d="M477.59,379.18v3.59c0.21-1.2,0.45-2.39,0.7-3.59H477.59z"/>
		<path class="st0" d="M476.08,466.83c0.49,0.8,1,1.58,1.51,2.37v-2.37H476.08z"/>
		<path class="st0" d="M484.03,443.52c-0.79-1.95-1.52-3.92-2.2-5.91h-4.24v9.74h8.19C485.18,446.08,484.59,444.81,484.03,443.52z"
			/>
		<rect x="477.59" y="457.09" class="st0" width="9.74" height="9.74"/>
		<rect x="467.86" y="437.61" class="st0" width="9.74" height="9.74"/>
		<path class="st0" d="M487.33,450.45c-0.53-1.02-1.05-2.06-1.55-3.1h-8.19v9.74h9.74V450.45z"/>
		<rect x="613.94" y="272.05" class="st0" width="9.74" height="9.74"/>
		<rect x="672.37" y="369.44" class="st0" width="9.74" height="9.74"/>
		<rect x="672.37" y="340.22" class="st0" width="9.74" height="9.74"/>
		<rect x="536.03" y="466.83" class="st0" width="9.74" height="9.74"/>
		<rect x="672.37" y="359.7" class="st2" width="9.74" height="9.74"/>
		<rect x="672.37" y="349.96" class="st2" width="9.74" height="9.74"/>
		<rect x="672.37" y="301.27" class="st1" width="9.74" height="9.74"/>
		<rect x="672.37" y="291.53" class="st0" width="9.74" height="9.74"/>
		<rect x="672.37" y="311.01" class="st0" width="9.74" height="9.74"/>
		<rect x="672.37" y="320.75" class="st0" width="9.74" height="9.74"/>
		<rect x="672.37" y="330.48" class="st0" width="9.74" height="9.74"/>
		<path class="st0" d="M688.11,437.61c0.74-2.93,1.69-6.15,2.9-9.74h-8.9v9.74H688.11z"/>
		<rect x="672.37" y="427.87" class="st0" width="9.74" height="9.74"/>
		<rect x="672.37" y="418.13" class="st3" width="9.74" height="9.74"/>
		<path class="st0" d="M682.11,447.35h4.15c0.35-2.88,0.93-6.08,1.85-9.74h-6V447.35z"/>
		<rect x="672.37" y="379.18" class="st0" width="9.74" height="9.74"/>
		<rect x="672.37" y="388.92" class="st0" width="9.74" height="9.74"/>
		<rect x="672.37" y="408.39" class="st0" width="9.74" height="9.74"/>
		<rect x="672.37" y="398.66" class="st1" width="9.74" height="9.74"/>
		<path class="st0" d="M526.14,321.93c0.05,0.01,0.1,0.02,0.14,0.03v-1.22h-9.74v2.09c1.22-0.37,2.46-0.68,3.71-0.91
			C522.22,321.75,524.18,321.75,526.14,321.93z"/>
		<path class="st0" d="M682.11,457.09h3.79c-0.14-2.92-0.09-6.07,0.36-9.74h-4.15V457.09z"/>
		<path class="st0" d="M526.29,349.96v-9.74h-8.68c-0.37,0.24-0.73,0.5-1.06,0.79v8.95H526.29z"/>
		<rect x="516.55" y="311.01" class="st0" width="9.74" height="9.74"/>
		<path class="st0" d="M526.29,304.05c-1.33-0.1-2.66-0.14-3.99-0.11c-1.95,0.05-3.87,0.26-5.75,0.59v6.48h9.74V304.05z"/>
		<path class="st2" d="M525.95,359.7h0.33v-9.74h-9.74v4.49c0.42,0.36,0.86,0.7,1.35,0.99C520.37,357.21,523.1,358.64,525.95,359.7z
			"/>
		<path class="st0" d="M516.55,341.01c-0.77,0.65-1.42,1.4-1.86,2.22c-1.07,2.03-1.61,4.48-0.93,6.73h2.79V341.01z"/>
		<path class="st0" d="M606.76,275.91c-0.84,0.42-1.71,0.8-2.56,1.2v4.68l9.74,0v-9.74h-0.02c-0.73,0.63-1.57,1.19-2.54,1.66
			C609.85,274.46,608.29,275.15,606.76,275.91z"/>
		<path class="st0" d="M531.71,466.83c-0.06,3.49-0.15,6.73-0.26,9.74h4.57v-9.74H531.71z"/>
		<path class="st0" d="M513.76,349.96c0.01,0.05,0.02,0.1,0.04,0.14c0.3,0.71,0.59,1.42,0.9,2.14c0.51,0.85,1.13,1.58,1.86,2.21
			v-4.49H513.76z"/>
		<rect x="682.11" y="281.79" class="st0" width="9.74" height="9.74"/>
		<rect x="662.63" y="272.05" class="st0" width="9.74" height="9.74"/>
		<rect x="652.89" y="272.05" class="st0" width="9.74" height="9.74"/>
		<rect x="672.37" y="272.05" class="st0" width="9.74" height="9.74"/>
		<rect x="682.11" y="272.05" class="st0" width="9.74" height="9.74"/>
		<rect x="643.15" y="272.05" class="st0" width="9.74" height="9.74"/>
		<rect x="662.63" y="320.75" class="st0" width="9.74" height="9.74"/>
		<rect x="623.67" y="272.05" class="st0" width="9.74" height="9.74"/>
		<rect x="633.41" y="272.05" class="st0" width="9.74" height="9.74"/>
		<rect x="672.37" y="281.79" class="st0" width="9.74" height="9.74"/>
		<path class="st0" d="M599.33,283.95c0.47,1.5,0.58,3.01,0.35,4.58c-0.15,1-0.22,2-0.23,3h4.74v-9.74h-5.06
			C599.03,282.47,599.09,283.19,599.33,283.95z"/>
		<path class="st0" d="M536.03,306.07c-3.14-1.08-6.43-1.77-9.74-2.03v6.96h9.74V306.07z"/>
		<rect x="526.29" y="311.01" class="st1" width="9.74" height="9.74"/>
		<rect x="604.2" y="281.79" class="st0" width="9.74" height="9.74"/>
		<path class="st0" d="M536.03,325.94v-5.2h-9.74v1.22c1.86,0.34,3.68,0.84,5.45,1.49C533.23,324.17,534.67,324.99,536.03,325.94z"
			/>
		<rect x="526.29" y="349.96" class="st2" width="9.74" height="9.74"/>
		<path class="st2" d="M536.03,343.45c-0.09,0.02-0.18,0.05-0.27,0.07c-0.53,0.03-1.07,0.02-1.61-0.01
			c-0.92-0.19-1.82-0.45-2.7-0.77c-1.49-0.71-2.89-1.58-4.25-2.52h-0.91v9.74h9.74V343.45z"/>
		<path class="st0" d="M526.91,340.03c-0.19-0.14-0.4-0.25-0.62-0.37v0.56h0.91C527.1,340.16,527,340.09,526.91,340.03z"/>
		<rect x="613.94" y="281.79" class="st0" width="9.74" height="9.74"/>
		<rect x="652.89" y="281.79" class="st1" width="9.74" height="9.74"/>
		<rect x="662.63" y="281.79" class="st0" width="9.74" height="9.74"/>
		<rect x="662.63" y="291.53" class="st0" width="9.74" height="9.74"/>
		<rect x="662.63" y="301.27" class="st0" width="9.74" height="9.74"/>
		<rect x="623.67" y="281.79" class="st2" width="9.74" height="9.74"/>
		<rect x="662.63" y="311.01" class="st0" width="9.74" height="9.74"/>
		<rect x="633.41" y="281.79" class="st0" width="9.74" height="9.74"/>
		<path class="st0" d="M682.11,466.83h4.77c-0.39-3.23-0.81-6.33-0.98-9.74h-3.79V466.83z"/>
		<path class="st0" d="M532.96,361.26c1.02,0.12,2.04,0.17,3.07,0.1v-1.66h-9.74v0.12c0.37,0.13,0.73,0.26,1.1,0.38
			C529.2,360.79,531.06,361.02,532.96,361.26z"/>
		<rect x="643.15" y="281.79" class="st2" width="9.74" height="9.74"/>
		<rect x="613.94" y="457.09" class="st0" width="9.74" height="9.74"/>
		<rect x="623.67" y="457.09" class="st0" width="9.74" height="9.74"/>
		<rect x="633.41" y="457.09" class="st0" width="9.74" height="9.74"/>
		<rect x="604.2" y="457.09" class="st1" width="9.74" height="9.74"/>
		<rect x="672.37" y="457.09" class="st2" width="9.74" height="9.74"/>
		<path class="st0" d="M531.84,457.09c-0.03,3.45-0.07,6.69-0.13,9.74h4.32v-9.74H531.84z"/>
		<rect x="604.2" y="466.83" class="st0" width="9.74" height="9.74"/>
		<rect x="643.15" y="457.09" class="st0" width="9.74" height="9.74"/>
		<rect x="652.89" y="457.09" class="st0" width="9.74" height="9.74"/>
		<rect x="662.63" y="457.09" class="st0" width="9.74" height="9.74"/>
		<rect x="594.46" y="466.83" class="st0" width="9.74" height="9.74"/>
		<rect x="545.77" y="457.09" class="st0" width="9.74" height="9.74"/>
		<rect x="565.24" y="457.09" class="st0" width="9.74" height="9.74"/>
		<rect x="536.03" y="457.09" class="st0" width="9.74" height="9.74"/>
		<rect x="555.5" y="457.09" class="st0" width="9.74" height="9.74"/>
		<rect x="594.46" y="457.09" class="st0" width="9.74" height="9.74"/>
		<rect x="574.98" y="457.09" class="st0" width="9.74" height="9.74"/>
		<rect x="584.72" y="457.09" class="st0" width="9.74" height="9.74"/>
		<rect x="584.72" y="486.3" class="st0" width="9.74" height="9.74"/>
		<path class="st0" d="M623.67,258.43c-1.04,0.52-2.06,1.07-3.12,1.53c-0.39,0.17-0.49,0.57-0.61,0.94
			c-0.12,0.37-0.27,0.82-0.66,0.9c-0.51,0.09-0.86,0.27-1.11,0.51h5.5V258.43z"/>
		<path class="st0" d="M516.55,304.53c-3.36,0.59-6.62,1.6-9.74,2.94v3.53h9.74V304.53z"/>
		<rect x="506.81" y="311.01" class="st2" width="9.74" height="9.74"/>
		<path class="st0" d="M617.42,264.84c-0.33,2.96-1.44,5.4-3.49,7.2v0.01h9.74v-9.74h-5.5C617.53,262.92,617.53,263.9,617.42,264.84
			z"/>
		<path class="st0" d="M514.07,323.69c0.82-0.32,1.65-0.59,2.48-0.85v-2.09h-9.74v7.2C509.1,326.31,511.51,324.87,514.07,323.69
			L514.07,323.69z"/>
		<path class="st0" d="M466.4,447.35c0.46,1.2,0.95,2.4,1.45,3.58v-3.58H466.4z"/>
		<path class="st1" d="M477.59,457.09v-9.74h-9.74v3.58c0.88,2.08,1.83,4.13,2.83,6.16H477.59z"/>
		<path class="st0" d="M516.55,486.3h1.48c-0.5-0.35-0.99-0.7-1.48-1.06V486.3z"/>
		<path class="st0" d="M515.6,484.54c-0.03-0.01-0.04-0.03-0.06-0.04c-3.05-2.4-5.95-4.97-8.72-7.67v9.47h9.74v-1.06
			C516.23,485.01,515.91,484.78,515.6,484.54z"/>
		<rect x="652.89" y="262.31" class="st2" width="9.74" height="9.74"/>
		<rect x="662.63" y="262.31" class="st0" width="9.74" height="9.74"/>
		<rect x="672.37" y="262.31" class="st2" width="9.74" height="9.74"/>
		<path class="st3" d="M633.41,262.31v-6.91c-2.03,0.35-4,0.94-5.99,1.48c-1.31,0.36-2.54,0.94-3.75,1.55v3.88H633.41z"/>
		<path class="st0" d="M467.86,437.61h-4.75c0.03,0.1,0.05,0.2,0.08,0.29c0.94,3.18,2.01,6.34,3.22,9.45h1.45V437.61z"/>
		<rect x="682.11" y="262.31" class="st0" width="9.74" height="9.74"/>
		<rect x="643.15" y="262.31" class="st0" width="9.74" height="9.74"/>
		<path class="st0" d="M643.15,262.31v-7.73c-2.46,0.21-4.94,0.39-7.41,0.54c-0.79,0.05-1.56,0.15-2.33,0.28v6.91H643.15z"/>
		<rect x="633.41" y="262.31" class="st0" width="9.74" height="9.74"/>
		<rect x="662.63" y="476.56" class="st0" width="9.74" height="9.74"/>
		<rect x="633.41" y="476.56" class="st0" width="9.74" height="9.74"/>
		<rect x="623.67" y="476.56" class="st0" width="9.74" height="9.74"/>
		<rect x="604.2" y="486.3" class="st0" width="9.74" height="9.74"/>
		<rect x="613.94" y="486.3" class="st2" width="9.74" height="9.74"/>
		<rect x="545.77" y="466.83" class="st0" width="9.74" height="9.74"/>
		<rect x="643.15" y="476.56" class="st0" width="9.74" height="9.74"/>
		<rect x="672.37" y="476.56" class="st0" width="9.74" height="9.74"/>
		<path class="st0" d="M693.66,272.05c0.12-3.25-0.04-6.51-0.51-9.72c0-0.01,0-0.02,0-0.02h-1.3v9.74H693.66z"/>
		<rect x="652.89" y="476.56" class="st2" width="9.74" height="9.74"/>
		<rect x="574.98" y="486.3" class="st0" width="9.74" height="9.74"/>
		<rect x="594.46" y="486.3" class="st1" width="9.74" height="9.74"/>
		<rect x="545.77" y="476.56" class="st3" width="9.74" height="9.74"/>
		<rect x="555.5" y="476.56" class="st0" width="9.74" height="9.74"/>
		<rect x="536.03" y="476.56" class="st0" width="9.74" height="9.74"/>
		<rect x="565.24" y="476.56" class="st0" width="9.74" height="9.74"/>
		<rect x="574.98" y="476.56" class="st1" width="9.74" height="9.74"/>
		<path class="st2" d="M688.6,482.03c-0.1-1.83-0.3-3.65-0.53-5.46h-5.96v9.74h6.47C688.67,484.89,688.68,483.46,688.6,482.03z"/>
		<path class="st0" d="M531.45,476.56c-0.13,3.56-0.29,6.79-0.48,9.74h5.05v-9.74H531.45z"/>
		<rect x="623.67" y="486.3" class="st0" width="9.74" height="9.74"/>
		<rect x="613.94" y="466.83" class="st0" width="9.74" height="9.74"/>
		<rect x="652.89" y="466.83" class="st0" width="9.74" height="9.74"/>
		<rect x="633.41" y="466.83" class="st0" width="9.74" height="9.74"/>
		<rect x="623.67" y="466.83" class="st2" width="9.74" height="9.74"/>
		<rect x="643.15" y="466.83" class="st1" width="9.74" height="9.74"/>
		<path class="st0" d="M687,467.92l-0.01-0.02c-0.04-0.36-0.08-0.72-0.13-1.08h-4.77v9.74h5.96c-0.29-2.23-0.63-4.46-0.89-6.69
			C687.11,469.22,687.05,468.57,687,467.92z"/>
		<path class="st2" d="M682.11,418.13v9.74h8.9c0.27-0.79,0.55-1.6,0.84-2.43v-7.31H682.11z"/>
		<rect x="672.37" y="466.83" class="st0" width="9.74" height="9.74"/>
		<rect x="662.63" y="466.83" class="st3" width="9.74" height="9.74"/>
		<rect x="574.98" y="466.83" class="st0" width="9.74" height="9.74"/>
		<rect x="565.24" y="466.83" class="st3" width="9.74" height="9.74"/>
		<path class="st0" d="M691.84,425.44c0.81-2.29,1.72-4.72,2.75-7.31h-2.75V425.44z"/>
		<rect x="555.5" y="466.83" class="st0" width="9.74" height="9.74"/>
		<rect x="584.72" y="466.83" class="st1" width="9.74" height="9.74"/>
		<rect x="613.94" y="476.56" class="st2" width="9.74" height="9.74"/>
		<rect x="604.2" y="476.56" class="st0" width="9.74" height="9.74"/>
		<rect x="594.46" y="476.56" class="st3" width="9.74" height="9.74"/>
		<rect x="584.72" y="476.56" class="st0" width="9.74" height="9.74"/>
		<rect x="682.11" y="311.01" class="st3" width="9.74" height="9.74"/>
		<rect x="682.11" y="330.48" class="st3" width="9.74" height="9.74"/>
		<path class="st0" d="M691.84,281.79h3.25c-1.07-2.95-1.61-6.01-1.45-9.21c0.01-0.18,0.01-0.35,0.01-0.53h-1.82V281.79z"/>
		<rect x="691.84" y="320.75" class="st0" width="9.74" height="9.74"/>
		<rect x="682.11" y="320.75" class="st0" width="9.74" height="9.74"/>
		<rect x="691.84" y="311.01" class="st2" width="9.74" height="9.74"/>
		<path class="st0" d="M691.84,291.53h6.85c-0.91-2.85-1.93-5.67-3.1-8.45c-0.18-0.43-0.34-0.85-0.5-1.29h-3.25V291.53z"/>
		<path class="st0" d="M691.84,301.27h9.53c-0.77-3.28-1.65-6.53-2.68-9.74h-6.85V301.27z"/>
		<rect x="682.11" y="291.53" class="st0" width="9.74" height="9.74"/>
		<rect x="682.11" y="301.27" class="st0" width="9.74" height="9.74"/>
		<rect x="682.11" y="349.96" class="st0" width="9.74" height="9.74"/>
		<rect x="682.11" y="398.66" class="st0" width="9.74" height="9.74"/>
		<rect x="682.11" y="379.18" class="st0" width="9.74" height="9.74"/>
		<rect x="682.11" y="340.22" class="st0" width="9.74" height="9.74"/>
		<rect x="682.11" y="408.39" class="st0" width="9.74" height="9.74"/>
		<rect x="682.11" y="388.92" class="st0" width="9.74" height="9.74"/>
		<rect x="682.11" y="369.44" class="st3" width="9.74" height="9.74"/>
		<path class="st0" d="M694.59,418.13c1.2-3.02,2.55-6.26,4.06-9.74h-6.81v9.74H694.59z"/>
		<rect x="682.11" y="359.7" class="st0" width="9.74" height="9.74"/>
	</g>
	<g>
		<rect x="590.72" y="240.51" class="st3" width="12.17" height="12.17"/>
		<rect x="607.63" y="230.21" class="st2" width="10.3" height="10.3"/>
		<rect x="590.5" y="221.83" class="st2" width="9.63" height="9.63"/>
		<rect x="605.3" y="214.02" class="st3" width="9.63" height="9.63"/>
		<rect x="593.36" y="207.93" class="st2" width="6.09" height="6.09"/>
	</g>
</g>
</svg>
