<?xml version="1.0" encoding="UTF-8" standalone="no"?><!DOCTYPE svg PUBLIC "-//W3C//DTD SVG 1.1//EN" "http://www.w3.org/Graphics/SVG/1.1/DTD/svg11.dtd"><svg width="100%" height="100%" viewBox="0 0 364 366" version="1.1" xmlns="http://www.w3.org/2000/svg" xmlns:xlink="http://www.w3.org/1999/xlink" xml:space="preserve" xmlns:serif="http://www.serif.com/" style="fill-rule:evenodd;clip-rule:evenodd;stroke-linejoin:round;stroke-miterlimit:2;"><path d="M363.983,181.992c0,68.051 -37.352,127.381 -92.67,158.598c-5.783,3.267 -11.76,6.218 -17.909,8.847c-1.055,0.455 -2.117,0.891 -3.185,1.32c-21.068,8.531 -44.101,13.226 -68.228,13.226c-15.848,0 -31.229,-2.028 -45.889,-5.839c-9.132,-2.369 -17.985,-5.434 -26.503,-9.131c-11.229,-4.872 -21.87,-10.844 -31.792,-17.782c-47.039,-32.897 -77.807,-87.476 -77.807,-149.239c0,-100.512 81.479,-181.992 181.991,-181.992c100.513,0 181.992,81.48 181.992,181.992Z" style="fill:#231f20;fill-rule:nonzero;"/><rect x="147.234" y="279.767" width="9.738" height="9.738" style="fill:#fff;fill-rule:nonzero;"/><rect x="176.45" y="279.767" width="9.738" height="9.738" style="fill:#fff;fill-rule:nonzero;"/><rect x="156.972" y="279.767" width="9.739" height="9.738" style="fill:#fff;fill-rule:nonzero;"/><rect x="127.756" y="279.767" width="9.739" height="9.738" style="fill:#fff;fill-rule:nonzero;"/><rect x="215.404" y="279.767" width="9.739" height="9.738" style="fill:#e3e5e9;fill-rule:nonzero;"/><rect x="166.711" y="279.767" width="9.739" height="9.738" style="fill:#fff;fill-rule:nonzero;"/><rect x="137.495" y="279.767" width="9.739" height="9.738" style="fill:#fff;fill-rule:nonzero;"/><rect x="234.881" y="260.289" width="9.739" height="9.739" style="fill:#fff;fill-rule:nonzero;"/><rect x="205.665" y="279.767" width="9.739" height="9.738" style="fill:#e3e5e9;fill-rule:nonzero;"/><rect x="234.881" y="270.028" width="9.739" height="9.739" style="fill:#f0f2f4;fill-rule:nonzero;"/><rect x="225.143" y="279.767" width="9.738" height="9.738" style="fill:#fff;fill-rule:nonzero;"/><rect x="234.881" y="279.767" width="9.739" height="9.738" style="fill:#e3e5e9;fill-rule:nonzero;"/><rect x="186.188" y="279.767" width="9.739" height="9.738" style="fill:#fff;fill-rule:nonzero;"/><rect x="234.881" y="250.551" width="9.739" height="9.738" style="fill:#fff;fill-rule:nonzero;"/><rect x="195.927" y="279.767" width="9.738" height="9.738" style="fill:#fff;fill-rule:nonzero;"/><rect x="186.188" y="133.687" width="9.739" height="9.739" style="fill:#fff;fill-rule:nonzero;"/><rect x="195.927" y="289.505" width="9.738" height="9.739" style="fill:#f0f2f4;fill-rule:nonzero;"/><rect x="176.45" y="289.505" width="9.738" height="9.739" style="fill:#f0f2f4;fill-rule:nonzero;"/><rect x="205.665" y="289.505" width="9.739" height="9.739" style="fill:#fff;fill-rule:nonzero;"/><rect x="186.188" y="289.505" width="9.739" height="9.739" style="fill:#fff;fill-rule:nonzero;"/><rect x="234.881" y="289.505" width="9.739" height="9.739" style="fill:#fff;fill-rule:nonzero;"/><rect x="215.404" y="289.505" width="9.739" height="9.739" style="fill:#fff;fill-rule:nonzero;"/><rect x="225.143" y="289.505" width="9.738" height="9.739" style="fill:#f0f2f4;fill-rule:nonzero;"/><path d="M114.175,289.505c-0.201,3.102 -0.321,6.299 -0.347,9.6c0,0.047 0,0.092 -0.001,0.139l4.191,0l0,-9.739l-3.843,0Z" style="fill:#fff;fill-rule:nonzero;"/><rect x="244.62" y="289.505" width="9.739" height="9.739" style="fill:#fff;fill-rule:nonzero;"/><rect x="166.711" y="289.505" width="9.739" height="9.739" style="fill:#f0f2f4;fill-rule:nonzero;"/><rect x="137.495" y="289.505" width="9.739" height="9.739" style="fill:#fff;fill-rule:nonzero;"/><rect x="118.018" y="289.505" width="9.738" height="9.739" style="fill:#fff;fill-rule:nonzero;"/><rect x="147.234" y="289.505" width="9.738" height="9.739" style="fill:#e3e5e9;fill-rule:nonzero;"/><rect x="156.972" y="289.505" width="9.739" height="9.739" style="fill:#e3e5e9;fill-rule:nonzero;"/><rect x="127.756" y="289.505" width="9.739" height="9.739" style="fill:#e3e5e9;fill-rule:nonzero;"/><rect x="244.62" y="201.857" width="9.739" height="9.739" style="fill:#fff;fill-rule:nonzero;"/><rect x="234.881" y="240.812" width="9.739" height="9.739" style="fill:#fff;fill-rule:nonzero;"/><rect x="244.62" y="221.335" width="9.739" height="9.738" style="fill:#fff;fill-rule:nonzero;"/><rect x="244.62" y="192.119" width="9.739" height="9.738" style="fill:#f0f2f4;fill-rule:nonzero;"/><rect x="244.62" y="182.38" width="9.739" height="9.739" style="fill:#fff;fill-rule:nonzero;"/><rect x="244.62" y="231.073" width="9.739" height="9.739" style="fill:#fff;fill-rule:nonzero;"/><rect x="254.359" y="289.505" width="9.738" height="9.739" style="fill:#fff;fill-rule:nonzero;"/><rect x="244.62" y="240.812" width="9.739" height="9.739" style="fill:#fff;fill-rule:nonzero;"/><rect x="254.359" y="279.767" width="9.738" height="9.738" style="fill:#fff;fill-rule:nonzero;"/><rect x="244.62" y="270.028" width="9.739" height="9.739" style="fill:#fff;fill-rule:nonzero;"/><rect x="244.62" y="279.767" width="9.739" height="9.738" style="fill:#f0f2f4;fill-rule:nonzero;"/><rect x="244.62" y="260.289" width="9.739" height="9.739" style="fill:#fff;fill-rule:nonzero;"/><rect x="244.62" y="250.551" width="9.739" height="9.738" style="fill:#fff;fill-rule:nonzero;"/><rect x="244.62" y="211.596" width="9.739" height="9.739" style="fill:#f0f2f4;fill-rule:nonzero;"/><rect x="234.881" y="153.164" width="9.739" height="9.739" style="fill:#fff;fill-rule:nonzero;"/><path d="M234.881,172.641l9.739,0.001l0,-9.739l-9.739,0l0,9.738Z" style="fill:#fff;fill-rule:nonzero;"/><path d="M234.881,182.38l9.739,0l0,-9.738l-9.739,-0.001l0,9.739Z" style="fill:#fff;fill-rule:nonzero;"/><rect x="234.881" y="143.426" width="9.739" height="9.738" style="fill:#fff;fill-rule:nonzero;"/><rect x="225.143" y="133.687" width="9.738" height="9.739" style="fill:#fff;fill-rule:nonzero;"/><rect x="234.881" y="133.687" width="9.739" height="9.739" style="fill:#fff;fill-rule:nonzero;"/><rect x="234.881" y="221.335" width="9.739" height="9.738" style="fill:#fff;fill-rule:nonzero;"/><rect x="215.404" y="133.687" width="9.739" height="9.739" style="fill:#fff;fill-rule:nonzero;"/><rect x="234.881" y="231.073" width="9.739" height="9.739" style="fill:#f0f2f4;fill-rule:nonzero;"/><rect x="234.881" y="211.596" width="9.739" height="9.739" style="fill:#fff;fill-rule:nonzero;"/><rect x="234.881" y="192.119" width="9.739" height="9.738" style="fill:#fff;fill-rule:nonzero;"/><rect x="234.881" y="182.38" width="9.739" height="9.739" style="fill:#e3e5e9;fill-rule:nonzero;"/><rect x="234.881" y="201.857" width="9.739" height="9.739" style="fill:#fff;fill-rule:nonzero;"/><path d="M121.323,171.37c0.291,0.415 0.567,0.841 0.834,1.271l5.599,0l0,-9.738l-9.738,0l0,5.195c0.033,0.023 0.068,0.045 0.101,0.068c1.157,0.98 2.231,2.048 3.204,3.204Z" style="fill:#fff;fill-rule:nonzero;"/><path d="M127.756,182.38l-5.664,0c-0.18,0.305 -0.365,0.607 -0.561,0.902c0.007,0.006 0,0.006 -0.012,0.012c-0.405,0.474 -0.847,0.916 -1.315,1.334c-0.391,0.252 -0.79,0.492 -1.207,0.707c-0.321,0.104 -0.65,0.187 -0.979,0.267l0,6.517l9.738,0l0,-9.739Z" style="fill:#fff;fill-rule:nonzero;"/><path d="M125.608,201.857l-7.59,0l0,1.658c0.072,-0.005 0.143,-0.006 0.215,-0.012c2.658,-0.219 5.02,-0.718 7.375,-1.646Z" style="fill:#fff;fill-rule:nonzero;"/><path d="M127.756,200.887l0,-8.768l-9.738,0l0,9.738l7.59,0c0.714,-0.281 1.428,-0.606 2.148,-0.97Z" style="fill:#fff;fill-rule:nonzero;"/><path d="M127.756,270.028l0,-9.739l-8.674,0c-0.371,1.301 -0.727,2.626 -1.064,3.977l0,5.762l9.738,0Z" style="fill:#fff;fill-rule:nonzero;"/><path d="M118.018,270.028l-1.299,0c-0.63,3.12 -1.172,6.363 -1.608,9.739l2.907,0l0,-9.739Z" style="fill:#fff;fill-rule:nonzero;"/><path d="M118.018,264.266c-0.468,1.871 -0.901,3.792 -1.299,5.762l1.299,0l0,-5.762Z" style="fill:#fff;fill-rule:nonzero;"/><path d="M118.018,279.767l-2.907,0c-0.404,3.133 -0.719,6.379 -0.936,9.738l3.843,0l0,-9.738Z" style="fill:#fff;fill-rule:nonzero;"/><rect x="118.018" y="279.767" width="9.738" height="9.738" style="fill:#fff;fill-rule:nonzero;"/><rect x="195.927" y="133.687" width="9.738" height="9.739" style="fill:#fff;fill-rule:nonzero;"/><rect x="205.665" y="133.687" width="9.739" height="9.739" style="fill:#f0f2f4;fill-rule:nonzero;"/><path d="M183.953,143.426l2.235,0l0,-9.739l-4.742,0c-0.005,1.584 0.172,3.163 0.528,4.729c0.413,1.817 1.107,3.466 1.979,5.01Z" style="fill:#fff;fill-rule:nonzero;"/><path d="M127.756,153.195c-0.015,-0.01 -0.03,-0.02 -0.045,-0.031l-9.693,0l0,9.739l9.738,0l0,-9.708Z" style="fill:#fff;fill-rule:nonzero;"/><path d="M118.018,148.232l0,4.932l9.693,0c-2.971,-2.086 -6.248,-3.747 -9.693,-4.932Z" style="fill:#fff;fill-rule:nonzero;"/><rect x="147.234" y="221.335" width="9.738" height="9.738" style="fill:#fff;fill-rule:nonzero;"/><path d="M200.395,188.666c-1.089,1.757 -2.573,2.817 -4.468,3.24l0,0.213l9.738,0l0,-9.739l-1.755,0c-1.063,2.145 -2.241,4.238 -3.515,6.286Z" style="fill:#fff;fill-rule:nonzero;"/><rect x="195.927" y="201.857" width="9.738" height="9.739" style="fill:#fff;fill-rule:nonzero;"/><rect x="195.927" y="221.335" width="9.738" height="9.738" style="fill:#f0f2f4;fill-rule:nonzero;"/><rect x="195.927" y="211.596" width="9.738" height="9.739" style="fill:#fff;fill-rule:nonzero;"/><rect x="195.927" y="192.119" width="9.738" height="9.738" style="fill:#d1d4da;fill-rule:nonzero;"/><rect x="156.972" y="211.596" width="9.739" height="9.739" style="fill:#fff;fill-rule:nonzero;"/><rect x="156.972" y="221.335" width="9.739" height="9.738" style="fill:#fff;fill-rule:nonzero;"/><path d="M205.665,182.38l0,-3.865c-0.543,1.307 -1.126,2.596 -1.755,3.865l1.755,0Z" style="fill:#d1d4da;fill-rule:nonzero;"/><path d="M166.711,201.857l-4.629,0c-1.551,0.919 -3.268,2.007 -5.11,3.293l0,6.446l9.739,0l0,-9.739Z" style="fill:#fff;fill-rule:nonzero;"/><rect x="166.711" y="211.596" width="9.739" height="9.739" style="fill:#fff;fill-rule:nonzero;"/><rect x="166.711" y="221.335" width="9.739" height="9.738" style="fill:#f0f2f4;fill-rule:nonzero;"/><rect x="166.711" y="240.812" width="9.739" height="9.739" style="fill:#fff;fill-rule:nonzero;"/><rect x="166.711" y="231.073" width="9.739" height="9.739" style="fill:#fff;fill-rule:nonzero;"/><rect x="156.972" y="231.073" width="9.739" height="9.739" style="fill:#fff;fill-rule:nonzero;"/><rect x="176.45" y="240.812" width="9.738" height="9.739" style="fill:#f0f2f4;fill-rule:nonzero;"/><rect x="195.927" y="240.812" width="9.738" height="9.739" style="fill:#fff;fill-rule:nonzero;"/><rect x="166.711" y="201.857" width="9.739" height="9.739" style="fill:#d1d4da;fill-rule:nonzero;"/><rect x="195.927" y="231.073" width="9.738" height="9.739" style="fill:#fff;fill-rule:nonzero;"/><rect x="186.188" y="240.812" width="9.739" height="9.739" style="fill:#fff;fill-rule:nonzero;"/><rect x="205.665" y="201.857" width="9.739" height="9.739" style="fill:#fff;fill-rule:nonzero;"/><rect x="205.665" y="182.38" width="9.739" height="9.739" style="fill:#fff;fill-rule:nonzero;"/><path d="M272.246,84.994l-8.149,0l8.149,0Z" style="fill:#fff;fill-rule:nonzero;"/><rect x="205.665" y="211.596" width="9.739" height="9.739" style="fill:#f0f2f4;fill-rule:nonzero;"/><path d="M208.123,171.37c-0.116,0.427 -0.248,0.848 -0.373,1.271l7.654,0l0,-9.738l-7.072,0c0.435,2.823 0.544,5.676 -0.209,8.467Z" style="fill:#fff;fill-rule:nonzero;"/><path d="M156.972,211.596l-8.152,0c-0.526,0.468 -1.054,0.948 -1.586,1.444l0,8.295l9.738,0l0,-9.739Z" style="fill:#fff;fill-rule:nonzero;"/><rect x="205.665" y="221.335" width="9.739" height="9.738" style="fill:#fff;fill-rule:nonzero;"/><path d="M205.665,178.515l0,3.865l9.739,0l0,-9.739l-7.654,0c-0.592,2.001 -1.288,3.96 -2.085,5.874Z" style="fill:#fff;fill-rule:nonzero;"/><rect x="156.972" y="250.551" width="9.739" height="9.738" style="fill:#fff;fill-rule:nonzero;"/><rect x="186.188" y="250.551" width="9.739" height="9.738" style="fill:#fff;fill-rule:nonzero;"/><rect x="205.665" y="231.073" width="9.739" height="9.739" style="fill:#fff;fill-rule:nonzero;"/><rect x="176.45" y="250.551" width="9.738" height="9.738" style="fill:#fff;fill-rule:nonzero;"/><rect x="156.972" y="240.812" width="9.739" height="9.739" style="fill:#d1d4da;fill-rule:nonzero;"/><rect x="166.711" y="250.551" width="9.739" height="9.738" style="fill:#fff;fill-rule:nonzero;"/><rect x="195.927" y="250.551" width="9.738" height="9.738" style="fill:#e3e5e9;fill-rule:nonzero;"/><rect x="244.62" y="172.642" width="9.739" height="9.738" style="fill:#fff;fill-rule:nonzero;"/><rect x="205.665" y="250.551" width="9.739" height="9.738" style="fill:#e3e5e9;fill-rule:nonzero;"/><rect x="205.665" y="240.812" width="9.739" height="9.739" style="fill:#fff;fill-rule:nonzero;"/><path d="M70.157,162.903l8.906,0l0,-7.728c-3.205,2.288 -6.188,4.904 -8.906,7.728Z" style="fill:#fff;fill-rule:nonzero;"/><path d="M82.072,153.164l6.73,0l0,-3.531c-2.322,1.002 -4.57,2.188 -6.73,3.531Z" style="fill:#fff;fill-rule:nonzero;"/><path d="M234.881,88.446l0,6.287l5.331,0c-1.862,-2.028 -3.566,-4.182 -5.331,-6.287Z" style="fill:#fff;fill-rule:nonzero;"/><rect x="273.836" y="231.073" width="9.739" height="9.739" style="fill:#fff;fill-rule:nonzero;"/><path d="M273.836,91.53l0,3.203l0.394,0c-0.088,-1.081 -0.222,-2.148 -0.394,-3.203Z" style="fill:#fff;fill-rule:nonzero;"/><path d="M186.188,119.265c-1.143,0.536 -2.265,1.112 -3.279,1.887c-1.027,0.784 -1.615,1.732 -1.781,2.796l5.06,0l0,-4.683Z" style="fill:#fff;fill-rule:nonzero;"/><path d="M107.944,201.857c0.112,0.042 0.223,0.083 0.335,0.123l0,-0.123l-0.335,0Z" style="fill:#fff;fill-rule:nonzero;"/><path d="M102.018,181.285c-0.807,0.221 -1.638,0.602 -2.414,1.095l8.675,0l0,-0.564c-1.816,-0.935 -4.444,-1.034 -6.261,-0.531Z" style="fill:#fff;fill-rule:nonzero;"/><rect x="205.665" y="104.471" width="9.739" height="9.739" style="fill:#fff;fill-rule:nonzero;"/><path d="M195.927,114.196c-0.005,0.004 -0.01,0.009 -0.015,0.014l0.015,0l0,-0.014Z" style="fill:#fff;fill-rule:nonzero;"/><path d="M254.359,79.215c-0.843,1.899 -1.586,3.846 -2.346,5.779l2.346,0l0,-5.779Z" style="fill:#fff;fill-rule:nonzero;"/><path d="M244.62,354.491c1.786,-0.658 3.564,-1.333 5.323,-2.046c-0.703,-1.458 -1.295,-2.965 -1.811,-4.508l-3.512,0l0,6.554Z" style="fill:#f0f2f4;fill-rule:nonzero;"/><path d="M227.276,79.142c-0.682,2.029 -0.202,3.767 0.234,5.511c0.029,0.114 0.064,0.227 0.095,0.341l4.348,0c-1.544,-1.878 -3.05,-3.833 -4.677,-5.852Z" style="fill:#fff;fill-rule:nonzero;"/><path d="M64.823,318.721c1.449,1.9 2.948,3.763 4.501,5.58l0,-5.58l-4.501,0Z" style="fill:#fff;fill-rule:nonzero;"/><path d="M73.064,328.46c0.411,0.435 0.821,0.871 1.238,1.3c1.055,1.08 2.13,2.135 3.229,3.159c0.506,0.354 1.022,0.694 1.532,1.043l0,-5.502l-5.999,0Z" style="fill:#fff;fill-rule:nonzero;"/><rect x="108.279" y="338.198" width="9.739" height="9.739" style="fill:#fff;fill-rule:nonzero;"/><path d="M68.16,165.063c-2.147,2.427 -4.152,4.961 -6.032,7.578l7.196,0l0,-8.858c-0.393,0.423 -0.783,0.849 -1.164,1.28Z" style="fill:#fff;fill-rule:nonzero;"/><path d="M264.097,345.981c2.34,-1.19 4.659,-2.415 6.939,-3.703c-0.408,-1.351 -0.689,-2.71 -0.855,-4.08l-6.084,0l0,7.783Z" style="fill:#fff;fill-rule:nonzero;"/><path d="M162.082,201.857l4.629,0l0,-2.517c-1.265,0.624 -2.831,1.453 -4.629,2.517Z" style="fill:#fff;fill-rule:nonzero;"/><rect x="186.188" y="231.073" width="9.739" height="9.739" style="fill:#e3e5e9;fill-rule:nonzero;"/><rect x="186.188" y="221.335" width="9.739" height="9.738" style="fill:#fff;fill-rule:nonzero;"/><rect x="186.188" y="211.596" width="9.739" height="9.739" style="fill:#fff;fill-rule:nonzero;"/><path d="M122.157,172.641c0.331,0.534 0.646,1.077 0.929,1.636c0.183,0.55 0.335,1.112 0.455,1.681c0.044,0.802 0.044,1.605 -0.013,2.401c-0.189,0.96 -0.448,1.902 -0.777,2.818c-0.203,0.41 -0.426,0.809 -0.659,1.203l5.664,0l0,-9.739l-5.599,0Z" style="fill:#fff;fill-rule:nonzero;"/><path d="M186.188,192.953l0,8.904l9.739,0l0,-9.738l-1.562,0c-2.739,0.149 -5.468,0.405 -8.177,0.834Z" style="fill:#fff;fill-rule:nonzero;"/><path d="M194.365,192.119l1.562,0l0,-0.213c-0.449,0.1 -0.913,0.176 -1.409,0.203c-0.051,0.003 -0.102,0.007 -0.153,0.01Z" style="fill:#fff;fill-rule:nonzero;"/><rect x="186.188" y="201.857" width="9.739" height="9.739" style="fill:#e3e5e9;fill-rule:nonzero;"/><rect x="176.45" y="221.335" width="9.738" height="9.738" style="fill:#fff;fill-rule:nonzero;"/><rect x="176.45" y="231.073" width="9.738" height="9.739" style="fill:#fff;fill-rule:nonzero;"/><rect x="176.45" y="211.596" width="9.738" height="9.739" style="fill:#fff;fill-rule:nonzero;"/><path d="M132.176,231.073l5.319,0l0,-7.454c-1.81,2.295 -3.591,4.783 -5.319,7.454Z" style="fill:#fff;fill-rule:nonzero;"/><rect x="127.756" y="240.812" width="9.739" height="9.739" style="fill:#fff;fill-rule:nonzero;"/><path d="M148.82,211.596l8.152,0l0,-6.446c-2.531,1.767 -5.292,3.905 -8.152,6.446Z" style="fill:#fff;fill-rule:nonzero;"/><path d="M139.359,221.335l7.875,0l0,-8.295c-2.595,2.417 -5.25,5.169 -7.875,8.295Z" style="fill:#fff;fill-rule:nonzero;"/><rect x="176.45" y="201.857" width="9.738" height="9.739" style="fill:#fff;fill-rule:nonzero;"/><path d="M176.45,195.347c-2.16,0.716 -4.26,1.528 -6.293,2.456c0,0 -0.019,0.006 -0.044,0.019c-0.232,0.087 -1.464,0.563 -3.402,1.518l0,2.517l9.739,0l0,-6.51Z" style="fill:#e3e5e9;fill-rule:nonzero;"/><path d="M186.188,192.953c-1.596,0.253 -3.184,0.564 -4.764,0.951c-1.701,0.415 -3.353,0.905 -4.974,1.443l0,6.51l9.738,0l0,-8.904Z" style="fill:#e3e5e9;fill-rule:nonzero;"/><rect x="225.143" y="182.38" width="9.738" height="9.739" style="fill:#fff;fill-rule:nonzero;"/><rect x="225.143" y="211.596" width="9.738" height="9.739" style="fill:#fff;fill-rule:nonzero;"/><rect x="225.143" y="201.857" width="9.738" height="9.739" style="fill:#f0f2f4;fill-rule:nonzero;"/><rect x="225.143" y="143.426" width="9.738" height="9.738" style="fill:#fff;fill-rule:nonzero;"/><rect x="225.143" y="221.335" width="9.738" height="9.738" style="fill:#e3e5e9;fill-rule:nonzero;"/><rect x="225.143" y="172.641" width="9.738" height="9.739" style="fill:#fff;fill-rule:nonzero;"/><rect x="225.143" y="162.903" width="9.738" height="9.738" style="fill:#e3e5e9;fill-rule:nonzero;"/><rect x="225.143" y="153.164" width="9.738" height="9.739" style="fill:#fff;fill-rule:nonzero;"/><rect x="225.143" y="231.073" width="9.738" height="9.739" style="fill:#fff;fill-rule:nonzero;"/><rect x="118.018" y="270.028" width="9.738" height="9.739" style="fill:#d1d4da;fill-rule:nonzero;"/><rect x="225.143" y="192.119" width="9.738" height="9.738" style="fill:#fff;fill-rule:nonzero;"/><rect x="215.404" y="270.028" width="9.739" height="9.739" style="fill:#fff;fill-rule:nonzero;"/><rect x="205.665" y="270.028" width="9.739" height="9.739" style="fill:#fff;fill-rule:nonzero;"/><rect x="225.143" y="240.812" width="9.738" height="9.739" style="fill:#fff;fill-rule:nonzero;"/><rect x="186.188" y="270.028" width="9.739" height="9.739" style="fill:#d1d4da;fill-rule:nonzero;"/><rect x="195.927" y="270.028" width="9.738" height="9.739" style="fill:#fff;fill-rule:nonzero;"/><rect x="225.143" y="250.551" width="9.738" height="9.738" style="fill:#d1d4da;fill-rule:nonzero;"/><rect x="225.143" y="270.028" width="9.738" height="9.739" style="fill:#fff;fill-rule:nonzero;"/><rect x="225.143" y="260.289" width="9.738" height="9.739" style="fill:#fff;fill-rule:nonzero;"/><path d="M127.756,240.812l-1.144,0c-1.525,3.045 -2.962,6.288 -4.285,9.739l5.429,0l0,-9.739Z" style="fill:#fff;fill-rule:nonzero;"/><path d="M134.081,196.008c1.089,-1.218 2.06,-2.522 2.917,-3.889l-9.242,0l0,8.768c0.062,-0.031 0.122,-0.057 0.183,-0.089c2.281,-1.175 4.43,-2.875 6.142,-4.79Z" style="fill:#fff;fill-rule:nonzero;"/><path d="M127.756,238.589c-0.386,0.728 -0.767,1.471 -1.144,2.223l1.144,0l0,-2.223Z" style="fill:#fff;fill-rule:nonzero;"/><path d="M137.495,240.812l0,-9.739l-5.319,0c-0.921,1.425 -1.829,2.894 -2.714,4.43c-0.578,1.004 -1.147,2.033 -1.706,3.086l0,2.223l9.739,0Z" style="fill:#e3e5e9;fill-rule:nonzero;"/><path d="M122.327,250.551c-1.18,3.079 -2.269,6.322 -3.245,9.738l8.674,0l0,-9.738l-5.429,0Z" style="fill:#fff;fill-rule:nonzero;"/><rect x="176.45" y="270.028" width="9.738" height="9.739" style="fill:#fff;fill-rule:nonzero;"/><rect x="127.756" y="270.028" width="9.739" height="9.739" style="fill:#fff;fill-rule:nonzero;"/><rect x="127.756" y="250.551" width="9.739" height="9.738" style="fill:#fff;fill-rule:nonzero;"/><rect x="127.756" y="260.289" width="9.739" height="9.739" style="fill:#fff;fill-rule:nonzero;"/><path d="M137.495,191.295l0,-8.915l-9.739,0l0,9.739l9.242,0c0.17,-0.273 0.336,-0.547 0.497,-0.824Z" style="fill:#d1d4da;fill-rule:nonzero;"/><rect x="195.927" y="143.426" width="9.738" height="9.738" style="fill:#d1d4da;fill-rule:nonzero;"/><path d="M189.102,150.264c1.023,1.165 2.17,2.124 3.425,2.9l3.4,0l0,-9.738l-9.739,0l0,3.337c0.918,1.198 1.909,2.354 2.914,3.501Z" style="fill:#fff;fill-rule:nonzero;"/><rect x="205.665" y="143.426" width="9.739" height="9.738" style="fill:#fff;fill-rule:nonzero;"/><path d="M186.188,143.426l-2.235,0c0.658,1.164 1.417,2.268 2.235,3.337l0,-3.337Z" style="fill:#fff;fill-rule:nonzero;"/><path d="M127.756,153.195l0,9.708l9.367,0c-2.459,-3.839 -5.671,-7.105 -9.367,-9.708Z" style="fill:#fff;fill-rule:nonzero;"/><rect x="215.404" y="143.426" width="9.739" height="9.738" style="fill:#fff;fill-rule:nonzero;"/><rect x="127.756" y="172.641" width="9.739" height="9.739" style="fill:#fff;fill-rule:nonzero;"/><path d="M137.495,163.489c-0.121,-0.198 -0.247,-0.391 -0.372,-0.586l-9.367,0l0,9.738l9.739,0l0,-9.152Z" style="fill:#f0f2f4;fill-rule:nonzero;"/><rect x="166.711" y="260.289" width="9.739" height="9.739" style="fill:#e3e5e9;fill-rule:nonzero;"/><rect x="215.404" y="231.073" width="9.739" height="9.739" style="fill:#d1d4da;fill-rule:nonzero;"/><rect x="215.404" y="250.551" width="9.739" height="9.738" style="fill:#fff;fill-rule:nonzero;"/><rect x="205.665" y="260.289" width="9.739" height="9.739" style="fill:#fff;fill-rule:nonzero;"/><rect x="215.404" y="260.289" width="9.739" height="9.739" style="fill:#f0f2f4;fill-rule:nonzero;"/><rect x="215.404" y="240.812" width="9.739" height="9.739" style="fill:#fff;fill-rule:nonzero;"/><rect x="215.404" y="192.119" width="9.739" height="9.738" style="fill:#fff;fill-rule:nonzero;"/><rect x="215.404" y="221.335" width="9.739" height="9.738" style="fill:#fff;fill-rule:nonzero;"/><rect x="215.404" y="201.857" width="9.739" height="9.739" style="fill:#fff;fill-rule:nonzero;"/><rect x="215.404" y="211.596" width="9.739" height="9.739" style="fill:#fff;fill-rule:nonzero;"/><rect x="176.45" y="260.289" width="9.738" height="9.739" style="fill:#fff;fill-rule:nonzero;"/><rect x="147.234" y="250.551" width="9.738" height="9.738" style="fill:#f0f2f4;fill-rule:nonzero;"/><rect x="147.234" y="260.289" width="9.738" height="9.739" style="fill:#fff;fill-rule:nonzero;"/><rect x="195.927" y="260.289" width="9.738" height="9.739" style="fill:#f0f2f4;fill-rule:nonzero;"/><rect x="147.234" y="240.812" width="9.738" height="9.739" style="fill:#f0f2f4;fill-rule:nonzero;"/><rect x="156.972" y="260.289" width="9.739" height="9.739" style="fill:#fff;fill-rule:nonzero;"/><rect x="186.188" y="260.289" width="9.739" height="9.739" style="fill:#fff;fill-rule:nonzero;"/><rect x="147.234" y="231.073" width="9.738" height="9.739" style="fill:#d1d4da;fill-rule:nonzero;"/><rect x="215.404" y="182.38" width="9.739" height="9.739" style="fill:#fff;fill-rule:nonzero;"/><path d="M140.975,172.641l-3.48,0l0,9.739l3.352,0c0.623,-3.208 0.685,-6.51 0.128,-9.739Z" style="fill:#fff;fill-rule:nonzero;"/><rect x="137.495" y="260.289" width="9.739" height="9.739" style="fill:#fff;fill-rule:nonzero;"/><rect x="215.404" y="172.641" width="9.739" height="9.739" style="fill:#fff;fill-rule:nonzero;"/><rect x="137.495" y="240.812" width="9.739" height="9.739" style="fill:#fff;fill-rule:nonzero;"/><rect x="137.495" y="231.073" width="9.739" height="9.739" style="fill:#fff;fill-rule:nonzero;"/><rect x="156.972" y="270.028" width="9.739" height="9.739" style="fill:#fff;fill-rule:nonzero;"/><path d="M147.234,221.335l-7.875,0c-0.623,0.742 -1.245,1.5 -1.864,2.284l0,7.454l9.739,0l0,-9.738Z" style="fill:#fff;fill-rule:nonzero;"/><rect x="147.234" y="270.028" width="9.738" height="9.739" style="fill:#fff;fill-rule:nonzero;"/><rect x="137.495" y="270.028" width="9.739" height="9.739" style="fill:#e3e5e9;fill-rule:nonzero;"/><rect x="137.495" y="250.551" width="9.739" height="9.738" style="fill:#f0f2f4;fill-rule:nonzero;"/><path d="M207.87,160.375c0.175,0.838 0.332,1.682 0.462,2.528l7.072,0l0,-9.739l-9.739,0l0,4.013c1.125,0.677 1.894,1.73 2.205,3.198Z" style="fill:#fff;fill-rule:nonzero;"/><path d="M197.052,155.06c2.079,0.518 4.183,0.961 6.3,1.308c0.881,0.145 1.657,0.413 2.313,0.809l0,-4.013l-9.738,0l0,1.573c0.368,0.119 0.743,0.227 1.125,0.323Z" style="fill:#fff;fill-rule:nonzero;"/><rect x="215.404" y="153.164" width="9.739" height="9.739" style="fill:#fff;fill-rule:nonzero;"/><rect x="215.404" y="162.903" width="9.739" height="9.738" style="fill:#f0f2f4;fill-rule:nonzero;"/><rect x="166.711" y="270.028" width="9.739" height="9.739" style="fill:#d1d4da;fill-rule:nonzero;"/><path d="M137.495,182.38l0,8.915c1.615,-2.78 2.748,-5.802 3.352,-8.915l-3.352,0Z" style="fill:#fff;fill-rule:nonzero;"/><path d="M195.927,153.164l-3.4,0c1.057,0.655 2.19,1.18 3.4,1.573l0,-1.573Z" style="fill:#fff;fill-rule:nonzero;"/><path d="M138.094,164.507c-0.193,-0.344 -0.394,-0.682 -0.599,-1.018l0,9.152l3.48,0c-0.484,-2.803 -1.431,-5.552 -2.881,-8.134Z" style="fill:#fff;fill-rule:nonzero;"/><rect x="205.665" y="192.119" width="9.739" height="9.738" style="fill:#fff;fill-rule:nonzero;"/><path d="M268.149,75.28c-0.296,-0.578 -0.596,-1.156 -0.904,-1.73c-0.972,-1.814 -2.033,-2.984 -3.148,-3.536l0,5.266l4.052,0Z" style="fill:#fff;fill-rule:nonzero;"/><rect x="137.495" y="328.46" width="9.739" height="9.738" style="fill:#fff;fill-rule:nonzero;"/><rect x="118.018" y="328.46" width="9.738" height="9.738" style="fill:#fff;fill-rule:nonzero;"/><path d="M100.022,328.46l-1.482,0l0,9.738l9.739,0l0,-4.488c-2.834,-1.616 -5.588,-3.371 -8.257,-5.25Z" style="fill:#fff;fill-rule:nonzero;"/><path d="M112.964,328.46c-0.179,2.716 -0.386,5.192 -0.627,7.442c-1.37,-0.699 -2.722,-1.431 -4.058,-2.192l0,4.488l9.739,0l0,-9.738l-5.054,0Z" style="fill:#e3e5e9;fill-rule:nonzero;"/><rect x="166.711" y="338.198" width="9.739" height="9.739" style="fill:#fff;fill-rule:nonzero;"/><rect x="156.972" y="338.198" width="9.739" height="9.739" style="fill:#fff;fill-rule:nonzero;"/><rect x="147.234" y="338.198" width="9.738" height="9.739" style="fill:#e3e5e9;fill-rule:nonzero;"/><rect x="147.234" y="328.46" width="9.738" height="9.738" style="fill:#fff;fill-rule:nonzero;"/><path d="M79.319,308.47c-0.087,-0.115 -0.169,-0.234 -0.256,-0.35l0,0.862l0.674,0c-0.138,-0.171 -0.281,-0.339 -0.418,-0.512Z" style="fill:#fff;fill-rule:nonzero;"/><path d="M88.802,318.985c-0.091,-0.088 -0.183,-0.175 -0.272,-0.264l-9.467,0l0,9.739l9.739,0l0,-9.475Z" style="fill:#fff;fill-rule:nonzero;"/><path d="M245.326,94.733l9.033,0l0,-9.739l-2.346,0c-0.087,0.223 -0.174,0.447 -0.263,0.67c-1.432,3.612 -3.594,6.577 -6.424,9.069Z" style="fill:#fff;fill-rule:nonzero;"/><path d="M79.737,308.982l-0.674,0l0,9.739l9.467,0c-3.119,-3.067 -6.055,-6.32 -8.793,-9.739Z" style="fill:#fff;fill-rule:nonzero;"/><rect x="88.802" y="328.46" width="9.738" height="9.738" style="fill:#fff;fill-rule:nonzero;"/><path d="M264.097,84.994l8.149,0c-1.071,-3.333 -2.484,-6.557 -4.097,-9.714l-4.052,0l0,9.714Z" style="fill:#f0f2f4;fill-rule:nonzero;"/><path d="M88.802,328.46l-9.739,0l0,5.502c2.125,1.455 4.278,2.871 6.466,4.236l3.273,0l0,-9.738Z" style="fill:#fff;fill-rule:nonzero;"/><path d="M88.802,340.196c3.183,1.893 6.434,3.682 9.738,5.383l0,-7.381l-9.738,0l0,1.998Z" style="fill:#d1d4da;fill-rule:nonzero;"/><path d="M85.529,338.198c1.084,0.676 2.174,1.344 3.273,1.998l0,-1.998l-3.273,0Z" style="fill:#fff;fill-rule:nonzero;"/><rect x="127.756" y="328.46" width="9.739" height="9.738" style="fill:#fff;fill-rule:nonzero;"/><path d="M293.313,216.659c0.381,-1.744 0.696,-3.43 0.957,-5.063l-0.957,0l0,5.063Z" style="fill:#fff;fill-rule:nonzero;"/><path d="M270.303,331.118c0.129,-0.884 0.21,-1.77 0.266,-2.658l-6.472,0l0,9.738l6.084,0c-0.281,-2.319 -0.227,-4.672 0.122,-7.08Z" style="fill:#fff;fill-rule:nonzero;"/><path d="M283.575,211.596l0,9.739l8.6,0c0.431,-1.602 0.807,-3.159 1.138,-4.676l0,-5.063l-9.738,0Z" style="fill:#fff;fill-rule:nonzero;"/><path d="M293.313,201.857l1.922,0c0.125,-3.624 -0.035,-6.871 -0.37,-9.738l-1.552,0l0,9.738Z" style="fill:#fff;fill-rule:nonzero;"/><path d="M293.313,211.596l0.957,0c0.559,-3.502 0.862,-6.75 0.965,-9.739l-1.922,0l0,9.739Z" style="fill:#fff;fill-rule:nonzero;"/><path d="M273.836,94.733l0,-3.203c-0.364,-2.23 -0.906,-4.405 -1.59,-6.536l-8.149,0l0,9.739l9.739,0Z" style="fill:#fff;fill-rule:nonzero;"/><path d="M294.865,192.119c-0.364,-3.109 -0.929,-5.773 -1.552,-7.99l0,7.99l1.552,0Z" style="fill:#fff;fill-rule:nonzero;"/><rect x="254.359" y="84.994" width="9.738" height="9.739" style="fill:#f0f2f4;fill-rule:nonzero;"/><path d="M292.728,182.38l-9.153,0l0,9.739l9.738,0l0,-7.99c-0.096,-0.343 -0.194,-0.677 -0.292,-0.999c-0.095,-0.251 -0.196,-0.5 -0.293,-0.75Z" style="fill:#fff;fill-rule:nonzero;"/><rect x="195.927" y="338.198" width="9.738" height="9.739" style="fill:#fff;fill-rule:nonzero;"/><rect x="205.665" y="338.198" width="9.739" height="9.739" style="fill:#fff;fill-rule:nonzero;"/><rect x="215.404" y="338.198" width="9.739" height="9.739" style="fill:#d1d4da;fill-rule:nonzero;"/><rect x="254.359" y="328.46" width="9.738" height="9.738" style="fill:#fff;fill-rule:nonzero;"/><rect x="186.188" y="338.198" width="9.739" height="9.739" style="fill:#fff;fill-rule:nonzero;"/><rect x="215.404" y="328.46" width="9.739" height="9.738" style="fill:#fff;fill-rule:nonzero;"/><rect x="225.143" y="328.46" width="9.738" height="9.738" style="fill:#fff;fill-rule:nonzero;"/><path d="M244.62,328.46l0,9.738l1.261,0c-0.133,-0.887 -0.258,-1.78 -0.368,-2.682c1.037,0.689 1.353,1.586 1.548,2.433c0.02,0.084 0.042,0.166 0.062,0.249l7.236,0l0,-9.738l-9.739,0Z" style="fill:#fff;fill-rule:nonzero;"/><rect x="234.881" y="328.46" width="9.739" height="9.738" style="fill:#fff;fill-rule:nonzero;"/><rect x="176.45" y="338.198" width="9.738" height="9.739" style="fill:#fff;fill-rule:nonzero;"/><path d="M283.575,240.812l1.468,0c1.544,-3.375 2.884,-6.625 4.027,-9.739l-5.495,0l0,9.739Z" style="fill:#fff;fill-rule:nonzero;"/><path d="M59.586,201.857l0,-9.738l-8.546,0c-0.408,0.916 -0.806,1.837 -1.193,2.763l0,6.975l9.739,0Z" style="fill:#fff;fill-rule:nonzero;"/><rect x="283.575" y="192.119" width="9.738" height="9.738" style="fill:#e3e5e9;fill-rule:nonzero;"/><path d="M273.836,240.812l0,9.739l6.811,0c0.914,-2.092 1.887,-4.268 2.928,-6.54l0,-3.199l-9.739,0Z" style="fill:#fff;fill-rule:nonzero;"/><path d="M283.575,244.011c0.353,-0.77 0.711,-1.548 1.079,-2.34c0.135,-0.29 0.258,-0.572 0.389,-0.859l-1.468,0l0,3.199Z" style="fill:#fff;fill-rule:nonzero;"/><rect x="283.575" y="201.857" width="9.738" height="9.739" style="fill:#fff;fill-rule:nonzero;"/><rect x="273.836" y="201.857" width="9.739" height="9.739" style="fill:#fff;fill-rule:nonzero;"/><rect x="273.836" y="221.335" width="9.739" height="9.738" style="fill:#fff;fill-rule:nonzero;"/><rect x="273.836" y="211.596" width="9.739" height="9.739" style="fill:#fff;fill-rule:nonzero;"/><path d="M289.07,231.073c1.25,-3.403 2.274,-6.648 3.105,-9.738l-8.6,0l0,9.738l5.495,0Z" style="fill:#fff;fill-rule:nonzero;"/><path d="M49.847,250.551l-9.589,0c0.155,3.251 0.43,6.503 0.831,9.738l8.758,0l0,-9.738Z" style="fill:#fff;fill-rule:nonzero;"/><path d="M49.847,240.812l-9.684,0c-0.09,3.236 -0.06,6.487 0.095,9.739l9.589,0l0,-9.739Z" style="fill:#e3e5e9;fill-rule:nonzero;"/><path d="M49.847,260.289l-8.758,0c0.405,3.268 0.938,6.519 1.596,9.739l7.162,0l0,-9.739Z" style="fill:#fff;fill-rule:nonzero;"/><path d="M49.847,231.073l-9.064,0c-0.3,3.021 -0.504,6.047 -0.604,9.068c-0.008,0.224 -0.01,0.448 -0.016,0.671l9.684,0l0,-9.739Z" style="fill:#fff;fill-rule:nonzero;"/><path d="M49.847,211.596l-5.635,0c-0.827,3.214 -1.525,6.465 -2.097,9.739l7.732,0l0,-9.739Z" style="fill:#f0f2f4;fill-rule:nonzero;"/><path d="M49.847,201.857l-2.681,0c-1.123,3.197 -2.106,6.448 -2.954,9.739l5.635,0l0,-9.739Z" style="fill:#fff;fill-rule:nonzero;"/><path d="M49.847,194.882c-0.816,1.956 -1.591,3.929 -2.313,5.923c-0.126,0.349 -0.245,0.702 -0.368,1.052l2.681,0l0,-6.975Z" style="fill:#fff;fill-rule:nonzero;"/><path d="M49.847,221.335l-7.732,0c-0.565,3.229 -1.007,6.48 -1.332,9.738l9.064,0l0,-9.738Z" style="fill:#fff;fill-rule:nonzero;"/><path d="M88.802,153.164l-6.73,0c-1.023,0.636 -2.026,1.309 -3.009,2.011l0,7.728l9.739,0l0,-9.739Z" style="fill:#fff;fill-rule:nonzero;"/><path d="M244.62,104.471l9.739,0l0,-9.738l-9.033,0c-0.23,0.202 -0.468,0.399 -0.706,0.595l0,9.143Z" style="fill:#fff;fill-rule:nonzero;"/><rect x="264.097" y="94.733" width="9.739" height="9.738" style="fill:#f0f2f4;fill-rule:nonzero;"/><rect x="254.359" y="94.733" width="9.738" height="9.738" style="fill:#fff;fill-rule:nonzero;"/><path d="M226.328,96.646c-0.394,0.035 -0.79,0.063 -1.185,0.097l0,7.728l9.738,0l0,-9.738l-5.11,0c-0.328,1.225 -1.356,1.729 -3.443,1.913Z" style="fill:#fff;fill-rule:nonzero;"/><path d="M244.62,104.471l0,-9.143c-0.273,0.224 -0.541,0.451 -0.826,0.668c-0.947,0.72 -1.592,0.821 -2.483,-0.102c-0.374,-0.381 -0.739,-0.769 -1.099,-1.161l-5.331,0l0,9.738l9.739,0Z" style="fill:#fff;fill-rule:nonzero;"/><path d="M85.76,172.641l-6.697,0l0,7.085c2.07,-2.513 4.291,-4.894 6.697,-7.085Z" style="fill:#fff;fill-rule:nonzero;"/><path d="M254.359,84.994l9.738,0l0,-9.714l-7.743,0c-0.741,1.275 -1.399,2.59 -1.995,3.935l0,5.779Z" style="fill:#fff;fill-rule:nonzero;"/><path d="M264.097,70.014c-1.987,-0.984 -4.147,0.019 -6.293,2.999c-0.528,0.733 -1,1.495 -1.45,2.267l7.743,0l0,-5.266Z" style="fill:#fff;fill-rule:nonzero;"/><path d="M88.324,170.435c0,0 0,-0.007 0.006,-0.007c0.155,-0.112 0.315,-0.216 0.472,-0.327l0,-7.198l-9.739,0l0,9.738l6.697,0c0.833,-0.758 1.686,-1.496 2.564,-2.206Z" style="fill:#fff;fill-rule:nonzero;"/><path d="M275.14,104.471c-0.396,-2.621 -0.711,-5.248 -0.799,-7.881c-0.021,-0.624 -0.061,-1.242 -0.111,-1.857l-0.394,0l0,9.738l1.304,0Z" style="fill:#fff;fill-rule:nonzero;"/><rect x="273.836" y="172.642" width="9.739" height="9.738" style="fill:#fff;fill-rule:nonzero;"/><path d="M283.575,182.38l9.153,0c-0.85,-2.187 -1.791,-4.346 -2.823,-6.473l-0.006,-0.013c-0.532,-1.098 -1.095,-2.179 -1.671,-3.252l-4.653,0l0,9.738Z" style="fill:#fff;fill-rule:nonzero;"/><path d="M283.575,172.642l4.653,0c-0.285,-0.533 -0.568,-1.067 -0.863,-1.594c-1.156,-2.048 -1.517,-3.918 0.019,-5.978c0.507,-0.677 0.906,-1.397 1.07,-2.167l-4.879,0l0,9.739Z" style="fill:#fff;fill-rule:nonzero;"/><rect x="273.836" y="182.38" width="9.739" height="9.739" style="fill:#fff;fill-rule:nonzero;"/><rect x="273.836" y="192.119" width="9.739" height="9.738" style="fill:#fff;fill-rule:nonzero;"/><path d="M273.836,143.426l0,9.738l9.739,0l0,-8.874c-0.066,-0.289 -0.137,-0.576 -0.205,-0.864l-9.534,0Z" style="fill:#fff;fill-rule:nonzero;"/><path d="M285.385,153.164c-0.133,-0.569 -0.255,-1.142 -0.358,-1.718c-0.431,-2.401 -0.914,-4.787 -1.452,-7.156l0,8.874l1.81,0Z" style="fill:#fff;fill-rule:nonzero;"/><path d="M283.575,162.903l4.879,0c0.172,-0.805 0.088,-1.665 -0.407,-2.585c-1.218,-2.262 -2.084,-4.671 -2.662,-7.154l-1.81,0l0,9.739Z" style="fill:#fff;fill-rule:nonzero;"/><path d="M79.063,308.12c-2.142,-2.863 -4.14,-5.827 -5.998,-8.876l-3.741,0l0,9.738l9.739,0l0,-0.862Z" style="fill:#fff;fill-rule:nonzero;"/><path d="M108.279,338.198l-9.739,0l0,7.381c1.572,0.809 3.156,1.594 4.753,2.358l4.986,0l0,-9.739Z" style="fill:#fff;fill-rule:nonzero;"/><rect x="118.018" y="338.198" width="9.738" height="9.739" style="fill:#fff;fill-rule:nonzero;"/><path d="M108.279,347.937l0,2.296c0.349,0.154 0.694,0.316 1.044,0.468c2.86,1.242 5.761,2.405 8.695,3.501l0,-6.265l-9.739,0Z" style="fill:#d1d4da;fill-rule:nonzero;"/><path d="M103.293,347.937c1.649,0.789 3.31,1.556 4.986,2.296l0,-2.296l-4.986,0Z" style="fill:#fff;fill-rule:nonzero;"/><path d="M118.018,354.202c3.204,1.198 6.452,2.307 9.738,3.326l0,-9.591l-9.738,0l0,6.265Z" style="fill:#fff;fill-rule:nonzero;"/><rect x="137.495" y="347.937" width="9.739" height="9.739" style="fill:#d1d4da;fill-rule:nonzero;"/><rect x="147.234" y="347.937" width="9.738" height="9.739" style="fill:#fff;fill-rule:nonzero;"/><rect x="137.495" y="338.198" width="9.739" height="9.739" style="fill:#fff;fill-rule:nonzero;"/><rect x="127.756" y="338.198" width="9.739" height="9.739" style="fill:#fff;fill-rule:nonzero;"/><rect x="49.847" y="201.857" width="9.739" height="9.739" style="fill:#fff;fill-rule:nonzero;"/><path d="M79.063,328.46l0,-9.739l-9.739,0l0,5.58c1.213,1.417 2.462,2.803 3.74,4.159l5.999,0Z" style="fill:#e3e5e9;fill-rule:nonzero;"/><rect x="156.972" y="347.937" width="9.739" height="9.739" style="fill:#fff;fill-rule:nonzero;"/><path d="M62.762,211.596c0.991,-3.294 2.134,-6.543 3.418,-9.739l-6.594,0l0,9.739l3.176,0Z" style="fill:#fff;fill-rule:nonzero;"/><rect x="69.324" y="308.982" width="9.739" height="9.739" style="fill:#e3e5e9;fill-rule:nonzero;"/><path d="M59.586,176.355c-1.285,1.967 -2.506,3.976 -3.659,6.025l3.659,0l0,-6.025Z" style="fill:#fff;fill-rule:nonzero;"/><path d="M55.927,182.38c-1.781,3.164 -3.405,6.417 -4.887,9.739l8.546,0l0,-9.739l-3.659,0Z" style="fill:#fff;fill-rule:nonzero;"/><rect x="59.586" y="182.38" width="9.738" height="9.739" style="fill:#fff;fill-rule:nonzero;"/><path d="M66.492,201.064c0.882,-2.018 1.83,-4.007 2.832,-5.969l0,-2.976l-9.738,0l0,9.738l6.594,0c0.106,-0.263 0.204,-0.53 0.312,-0.793Z" style="fill:#e3e5e9;fill-rule:nonzero;"/><rect x="234.881" y="338.198" width="9.739" height="9.739" style="fill:#fff;fill-rule:nonzero;"/><path d="M254.359,350.578c1.942,-0.847 3.864,-1.729 5.771,-2.641l-5.771,0l0,2.641Z" style="fill:#fff;fill-rule:nonzero;"/><path d="M251.781,347.937c0.499,1.044 0.949,2.106 1.347,3.188c0.413,-0.177 0.819,-0.367 1.231,-0.547l0,-2.641l-2.578,0Z" style="fill:#fff;fill-rule:nonzero;"/><path d="M254.359,338.198l-7.236,0c0.513,2.133 1.288,4.163 2.523,5.976c0.821,1.212 1.518,2.472 2.135,3.763l2.578,0l0,-9.739Z" style="fill:#fff;fill-rule:nonzero;"/><path d="M244.62,338.198l0,9.739l3.512,0c-1.04,-3.104 -1.744,-6.365 -2.251,-9.739l-1.261,0Z" style="fill:#fff;fill-rule:nonzero;"/><path d="M69.324,182.38l0,-9.739l-7.196,0c-0.876,1.219 -1.722,2.458 -2.542,3.714l0,6.025l9.738,0Z" style="fill:#fff;fill-rule:nonzero;"/><path d="M254.359,84.994l-2.346,0l2.346,0Z" style="fill:#fff;fill-rule:nonzero;"/><path d="M264.097,84.994l-9.738,0l9.738,0Z" style="fill:#fff;fill-rule:nonzero;"/><path d="M264.097,338.198l-9.738,0l0,9.739l5.771,0c1.331,-0.637 2.654,-1.289 3.967,-1.956l0,-7.783Z" style="fill:#f0f2f4;fill-rule:nonzero;"/><path d="M231.953,84.994l-4.348,0l4.348,0Z" style="fill:#fff;fill-rule:nonzero;"/><path d="M49.847,270.028l-7.162,0c0.671,3.285 1.474,6.536 2.409,9.739l4.753,0l0,-9.739Z" style="fill:#fff;fill-rule:nonzero;"/><rect x="186.188" y="347.937" width="9.739" height="9.739" style="fill:#fff;fill-rule:nonzero;"/><rect x="195.927" y="347.937" width="9.738" height="9.739" style="fill:#fff;fill-rule:nonzero;"/><rect x="166.711" y="347.937" width="9.739" height="9.739" style="fill:#fff;fill-rule:nonzero;"/><rect x="205.665" y="347.937" width="9.739" height="9.739" style="fill:#fff;fill-rule:nonzero;"/><rect x="176.45" y="347.937" width="9.738" height="9.739" style="fill:#d1d4da;fill-rule:nonzero;"/><rect x="215.404" y="347.937" width="9.739" height="9.739" style="fill:#fff;fill-rule:nonzero;"/><rect x="225.143" y="338.198" width="9.738" height="9.739" style="fill:#fff;fill-rule:nonzero;"/><rect x="225.143" y="347.937" width="9.738" height="9.739" style="fill:#fff;fill-rule:nonzero;"/><path d="M58.89,259.188c-0.354,-2.871 -0.593,-5.752 -0.742,-8.637l-8.301,0l0,9.738l9.219,0c-0.057,-0.367 -0.123,-0.733 -0.176,-1.101Z" style="fill:#fff;fill-rule:nonzero;"/><path d="M137.495,357.676l0,2.576c3.214,0.803 6.46,1.523 9.739,2.153l0,-4.729l-9.739,0Z" style="fill:#fff;fill-rule:nonzero;"/><path d="M166.711,357.676l0,7.383c3.223,0.263 6.47,0.44 9.739,0.533l0,-7.916l-9.739,0Z" style="fill:#e3e5e9;fill-rule:nonzero;"/><path d="M156.972,357.676l0,6.32c3.221,0.438 6.467,0.796 9.739,1.063l0,-7.383l-9.739,0Z" style="fill:#e3e5e9;fill-rule:nonzero;"/><path d="M128.23,357.676c2.51,0.77 5.04,1.493 7.595,2.156c0.555,0.145 1.113,0.281 1.67,0.42l0,-2.576l-9.265,0Z" style="fill:#fff;fill-rule:nonzero;"/><path d="M147.234,357.676l0,4.729c3.216,0.617 6.464,1.146 9.738,1.591l0,-6.32l-9.738,0Z" style="fill:#fff;fill-rule:nonzero;"/><path d="M77.042,182.38l-7.718,0l0,9.739l1.584,0c1.856,-3.362 3.898,-6.618 6.134,-9.739Z" style="fill:#fff;fill-rule:nonzero;"/><path d="M78.15,180.849c0.301,-0.378 0.606,-0.751 0.913,-1.123l0,-7.085l-9.739,0l0,9.739l7.718,0c0.367,-0.512 0.731,-1.027 1.108,-1.531Z" style="fill:#f0f2f4;fill-rule:nonzero;"/><path d="M137.495,347.937l-9.739,0l0,9.591c0.158,0.049 0.316,0.099 0.474,0.148l9.265,0l0,-9.739Z" style="fill:#fff;fill-rule:nonzero;"/><path d="M79.063,162.903l-8.906,0c-0.281,0.291 -0.558,0.585 -0.833,0.88l0,8.858l9.739,0l0,-9.738Z" style="fill:#f0f2f4;fill-rule:nonzero;"/><path d="M69.324,192.119l0,2.976c0.512,-1.001 1.041,-1.992 1.584,-2.976l-1.584,0Z" style="fill:#fff;fill-rule:nonzero;"/><path d="M215.404,357.676l0,4.87c3.277,-0.613 6.526,-1.306 9.739,-2.093l0,-2.777l-9.739,0Z" style="fill:#fff;fill-rule:nonzero;"/><path d="M225.143,357.676l0,2.777c3.283,-0.804 6.528,-1.703 9.738,-2.683l0,-0.094l-9.738,0Z" style="fill:#fff;fill-rule:nonzero;"/><path d="M234.881,357.77c0.102,-0.031 0.203,-0.063 0.304,-0.094l-0.304,0l0,0.094Z" style="fill:#fff;fill-rule:nonzero;"/><path d="M244.62,347.937l-9.739,0l0,9.739l0.304,0c3.183,-0.978 6.329,-2.04 9.435,-3.185l0,-6.554Z" style="fill:#f0f2f4;fill-rule:nonzero;"/><path d="M205.665,357.676l0,6.421c3.275,-0.431 6.522,-0.948 9.739,-1.551l0,-4.87l-9.739,0Z" style="fill:#e3e5e9;fill-rule:nonzero;"/><path d="M176.45,357.676l0,7.916c1.749,0.05 3.504,0.079 5.265,0.079c1.495,0 2.987,-0.018 4.473,-0.054l0,-7.941l-9.738,0Z" style="fill:#fff;fill-rule:nonzero;"/><path d="M186.188,357.676l0,7.941c3.269,-0.079 6.515,-0.251 9.739,-0.5l0,-7.441l-9.739,0Z" style="fill:#f0f2f4;fill-rule:nonzero;"/><path d="M195.927,357.676l0,7.441c3.272,-0.253 6.517,-0.597 9.738,-1.02l0,-6.421l-9.738,0Z" style="fill:#f0f2f4;fill-rule:nonzero;"/><path d="M58.689,231.073l-8.842,0l0,9.739l8.178,0c0.089,-3.253 0.317,-6.501 0.664,-9.739Z" style="fill:#fff;fill-rule:nonzero;"/><path d="M59.586,270.028l0,9.739l4.236,0c-1.09,-3.202 -2.032,-6.452 -2.83,-9.739l-1.406,0Z" style="fill:#fff;fill-rule:nonzero;"/><path d="M229.771,94.733l5.11,0l0,-6.287c-0.445,-0.531 -0.892,-1.06 -1.349,-1.582c-0.535,-0.614 -1.059,-1.238 -1.579,-1.87l-4.348,0c0.658,2.43 1.799,4.719 2.167,7.242c0.154,1.06 0.166,1.871 -0.001,2.497Z" style="fill:#fff;fill-rule:nonzero;"/><path d="M59.586,263.396l0,6.632l1.406,0c-0.534,-2.196 -1.002,-4.407 -1.406,-6.632Z" style="fill:#fff;fill-rule:nonzero;"/><path d="M59.586,263.396c-0.188,-1.033 -0.36,-2.069 -0.52,-3.107l-9.219,0l0,9.739l9.739,0l0,-6.632Z" style="fill:#fff;fill-rule:nonzero;"/><path d="M64.823,318.721l4.501,0l0,-9.739l-9.738,0l0,2.366c0.721,1.101 1.457,2.192 2.217,3.265c0.981,1.385 1.988,2.756 3.02,4.108Z" style="fill:#fff;fill-rule:nonzero;"/><rect x="49.847" y="270.028" width="9.739" height="9.739" style="fill:#f0f2f4;fill-rule:nonzero;"/><rect x="49.847" y="211.596" width="9.739" height="9.739" style="fill:#fff;fill-rule:nonzero;"/><path d="M58.025,240.812l-8.178,0l0,9.739l8.301,0c-0.167,-3.244 -0.213,-6.493 -0.123,-9.739Z" style="fill:#fff;fill-rule:nonzero;"/><path d="M69.324,292.604l0,6.64l3.741,0c-1.322,-2.17 -2.57,-4.384 -3.741,-6.64Z" style="fill:#fff;fill-rule:nonzero;"/><path d="M58.89,229.197c0.204,-1.431 0.441,-2.855 0.696,-4.276l0,-3.586l-9.739,0l0,9.738l8.842,0c0.067,-0.625 0.124,-1.252 0.201,-1.876Z" style="fill:#d1d4da;fill-rule:nonzero;"/><path d="M59.586,299.244l-6.914,0c1.646,3.332 3.447,6.586 5.403,9.738l1.511,0l0,-9.738Z" style="fill:#fff;fill-rule:nonzero;"/><path d="M62.762,211.596l-3.176,0l0,9.739l0.698,0c0.69,-3.28 1.512,-6.531 2.478,-9.739Z" style="fill:#fff;fill-rule:nonzero;"/><path d="M59.586,221.335l0,3.586c0.215,-1.199 0.447,-2.395 0.698,-3.586l-0.698,0Z" style="fill:#fff;fill-rule:nonzero;"/><path d="M58.075,308.982c0.493,0.796 0.998,1.584 1.511,2.366l0,-2.366l-1.511,0Z" style="fill:#fff;fill-rule:nonzero;"/><path d="M66.018,285.677c-0.791,-1.949 -1.518,-3.921 -2.196,-5.91l-4.236,0l0,9.738l8.19,0c-0.607,-1.265 -1.199,-2.539 -1.758,-3.828Z" style="fill:#fff;fill-rule:nonzero;"/><rect x="59.586" y="299.244" width="9.738" height="9.738" style="fill:#fff;fill-rule:nonzero;"/><rect x="49.847" y="279.767" width="9.739" height="9.738" style="fill:#fff;fill-rule:nonzero;"/><path d="M69.324,292.604c-0.531,-1.025 -1.048,-2.057 -1.548,-3.099l-8.19,0l0,9.739l9.738,0l0,-6.64Z" style="fill:#fff;fill-rule:nonzero;"/><rect x="195.927" y="114.21" width="9.738" height="9.738" style="fill:#fff;fill-rule:nonzero;"/><rect x="254.359" y="211.596" width="9.738" height="9.739" style="fill:#fff;fill-rule:nonzero;"/><rect x="254.359" y="182.38" width="9.738" height="9.739" style="fill:#fff;fill-rule:nonzero;"/><rect x="118.018" y="308.982" width="9.738" height="9.739" style="fill:#fff;fill-rule:nonzero;"/><rect x="254.359" y="201.857" width="9.738" height="9.739" style="fill:#f0f2f4;fill-rule:nonzero;"/><rect x="254.359" y="192.119" width="9.738" height="9.738" style="fill:#f0f2f4;fill-rule:nonzero;"/><rect x="254.359" y="143.426" width="9.738" height="9.738" style="fill:#e3e5e9;fill-rule:nonzero;"/><rect x="254.359" y="133.687" width="9.738" height="9.739" style="fill:#fff;fill-rule:nonzero;"/><rect x="254.359" y="153.164" width="9.738" height="9.739" style="fill:#fff;fill-rule:nonzero;"/><rect x="254.359" y="162.903" width="9.738" height="9.739" style="fill:#fff;fill-rule:nonzero;"/><rect x="254.359" y="172.642" width="9.738" height="9.738" style="fill:#fff;fill-rule:nonzero;"/><path d="M270.098,279.767c0.736,-2.929 1.685,-6.152 2.896,-9.739l-8.897,0l0,9.739l6.001,0Z" style="fill:#fff;fill-rule:nonzero;"/><rect x="254.359" y="270.028" width="9.738" height="9.739" style="fill:#fff;fill-rule:nonzero;"/><rect x="254.359" y="260.289" width="9.738" height="9.739" style="fill:#d1d4da;fill-rule:nonzero;"/><path d="M264.097,289.505l4.147,0c0.348,-2.88 0.935,-6.081 1.854,-9.738l-6.001,0l0,9.738Z" style="fill:#fff;fill-rule:nonzero;"/><rect x="254.359" y="221.335" width="9.738" height="9.738" style="fill:#fff;fill-rule:nonzero;"/><rect x="254.359" y="231.073" width="9.738" height="9.739" style="fill:#fff;fill-rule:nonzero;"/><rect x="254.359" y="250.551" width="9.738" height="9.738" style="fill:#fff;fill-rule:nonzero;"/><rect x="254.359" y="240.812" width="9.738" height="9.739" style="fill:#e3e5e9;fill-rule:nonzero;"/><path d="M108.135,164.09c0.048,0.009 0.096,0.02 0.144,0.029l0,-1.216l-9.739,0l0,2.095c1.22,-0.373 2.456,-0.685 3.712,-0.914c1.959,-0.177 3.924,-0.177 5.883,0.006Z" style="fill:#fff;fill-rule:nonzero;"/><path d="M264.097,299.244l3.79,0c-0.14,-2.919 -0.085,-6.07 0.357,-9.739l-4.147,0l0,9.739Z" style="fill:#fff;fill-rule:nonzero;"/><path d="M108.279,192.119l0,-9.739l-8.675,0c-0.372,0.236 -0.727,0.502 -1.064,0.787l0,8.952l9.739,0Z" style="fill:#fff;fill-rule:nonzero;"/><rect x="98.54" y="153.164" width="9.739" height="9.739" style="fill:#fff;fill-rule:nonzero;"/><path d="M108.279,146.205c-1.326,-0.104 -2.657,-0.142 -3.986,-0.105c-1.948,0.053 -3.867,0.258 -5.753,0.589l0,6.475l9.739,0l0,-6.959Z" style="fill:#fff;fill-rule:nonzero;"/><path d="M107.944,201.857l0.335,0l0,-9.738l-9.739,0l0,4.489c0.417,0.363 0.857,0.702 1.348,0.993c2.476,1.766 5.199,3.195 8.056,4.256Z" style="fill:#f0f2f4;fill-rule:nonzero;"/><path d="M98.54,183.167c-0.765,0.646 -1.424,1.399 -1.855,2.219c-1.071,2.03 -1.613,4.478 -0.934,6.733l2.789,0l0,-8.952Z" style="fill:#fff;fill-rule:nonzero;"/><path d="M188.748,118.068c-0.842,0.418 -1.707,0.797 -2.56,1.197l0,4.683l9.739,0l0,-9.738l-0.015,0c-0.727,0.634 -1.569,1.191 -2.538,1.659c-1.536,0.746 -3.096,1.441 -4.626,2.199Z" style="fill:#fff;fill-rule:nonzero;"/><path d="M113.701,308.982c-0.065,3.491 -0.15,6.733 -0.257,9.739l4.574,0l0,-9.739l-4.317,0Z" style="fill:#fff;fill-rule:nonzero;"/><path d="M95.751,192.119c0.014,0.047 0.021,0.095 0.036,0.142c0.297,0.714 0.594,1.422 0.898,2.136c0.505,0.851 1.131,1.579 1.855,2.211l0,-4.489l-2.789,0Z" style="fill:#fff;fill-rule:nonzero;"/><rect x="264.097" y="123.948" width="9.739" height="9.739" style="fill:#fff;fill-rule:nonzero;"/><rect x="244.62" y="114.21" width="9.739" height="9.738" style="fill:#fff;fill-rule:nonzero;"/><rect x="234.881" y="114.21" width="9.739" height="9.738" style="fill:#fff;fill-rule:nonzero;"/><rect x="254.359" y="114.21" width="9.738" height="9.738" style="fill:#fff;fill-rule:nonzero;"/><rect x="264.097" y="114.21" width="9.739" height="9.738" style="fill:#fff;fill-rule:nonzero;"/><rect x="225.143" y="114.21" width="9.738" height="9.738" style="fill:#fff;fill-rule:nonzero;"/><rect x="244.62" y="162.903" width="9.739" height="9.739" style="fill:#fff;fill-rule:nonzero;"/><rect x="205.665" y="114.21" width="9.739" height="9.738" style="fill:#fff;fill-rule:nonzero;"/><rect x="215.404" y="114.21" width="9.739" height="9.738" style="fill:#fff;fill-rule:nonzero;"/><rect x="254.359" y="123.948" width="9.738" height="9.739" style="fill:#fff;fill-rule:nonzero;"/><path d="M181.323,126.106c0.468,1.498 0.575,3.014 0.348,4.581c-0.149,1 -0.223,2.001 -0.225,3l4.742,0l0,-9.739l-5.06,0c-0.105,0.677 -0.043,1.399 0.195,2.158Z" style="fill:#fff;fill-rule:nonzero;"/><path d="M118.018,148.232c-3.145,-1.082 -6.428,-1.768 -9.739,-2.027l0,6.959l9.739,0l0,-4.932Z" style="fill:#fff;fill-rule:nonzero;"/><rect x="108.279" y="153.164" width="9.739" height="9.739" style="fill:#e3e5e9;fill-rule:nonzero;"/><rect x="186.188" y="123.948" width="9.739" height="9.739" style="fill:#fff;fill-rule:nonzero;"/><path d="M118.018,168.098l0,-5.195l-9.739,0l0,1.216c1.858,0.335 3.681,0.835 5.448,1.494c1.499,0.71 2.93,1.535 4.291,2.485Z" style="fill:#fff;fill-rule:nonzero;"/><rect x="108.279" y="192.119" width="9.739" height="9.738" style="fill:#f0f2f4;fill-rule:nonzero;"/><path d="M118.018,185.602c-0.092,0.023 -0.18,0.054 -0.272,0.074c-0.531,0.026 -1.068,0.019 -1.605,-0.006c-0.922,-0.189 -1.82,-0.448 -2.704,-0.771c-1.488,-0.714 -2.895,-1.575 -4.248,-2.519l-0.91,0l0,9.739l9.739,0l0,-6.517Z" style="fill:#f0f2f4;fill-rule:nonzero;"/><path d="M108.899,182.182c-0.191,-0.136 -0.403,-0.254 -0.62,-0.366l0,0.564l0.91,0c-0.096,-0.067 -0.194,-0.13 -0.29,-0.198Z" style="fill:#fff;fill-rule:nonzero;"/><rect x="195.927" y="123.948" width="9.738" height="9.739" style="fill:#fff;fill-rule:nonzero;"/><rect x="234.881" y="123.948" width="9.739" height="9.739" style="fill:#e3e5e9;fill-rule:nonzero;"/><rect x="244.62" y="123.948" width="9.739" height="9.739" style="fill:#fff;fill-rule:nonzero;"/><rect x="244.62" y="133.687" width="9.739" height="9.739" style="fill:#fff;fill-rule:nonzero;"/><rect x="244.62" y="143.426" width="9.739" height="9.738" style="fill:#fff;fill-rule:nonzero;"/><rect x="205.665" y="123.948" width="9.739" height="9.739" style="fill:#f0f2f4;fill-rule:nonzero;"/><rect x="244.62" y="153.164" width="9.739" height="9.739" style="fill:#fff;fill-rule:nonzero;"/><rect x="215.404" y="123.948" width="9.739" height="9.739" style="fill:#fff;fill-rule:nonzero;"/><path d="M264.097,308.982l4.766,0c-0.385,-3.234 -0.812,-6.329 -0.976,-9.738l-3.79,0l0,9.738Z" style="fill:#fff;fill-rule:nonzero;"/><path d="M114.947,203.414c1.022,0.124 2.044,0.172 3.071,0.101l0,-1.658l-9.739,0l0,0.123c0.365,0.132 0.732,0.26 1.101,0.379c1.813,0.588 3.671,0.822 5.567,1.055Z" style="fill:#fff;fill-rule:nonzero;"/><rect x="225.143" y="123.948" width="9.738" height="9.739" style="fill:#f0f2f4;fill-rule:nonzero;"/><rect x="195.927" y="299.244" width="9.738" height="9.738" style="fill:#fff;fill-rule:nonzero;"/><rect x="205.665" y="299.244" width="9.739" height="9.738" style="fill:#fff;fill-rule:nonzero;"/><rect x="215.404" y="299.244" width="9.739" height="9.738" style="fill:#fff;fill-rule:nonzero;"/><rect x="186.188" y="299.244" width="9.739" height="9.738" style="fill:#e3e5e9;fill-rule:nonzero;"/><rect x="254.359" y="299.244" width="9.738" height="9.738" style="fill:#f0f2f4;fill-rule:nonzero;"/><path d="M113.827,299.244c-0.027,3.451 -0.069,6.686 -0.126,9.738l4.317,0l0,-9.738l-4.191,0Z" style="fill:#fff;fill-rule:nonzero;"/><rect x="186.188" y="308.982" width="9.739" height="9.739" style="fill:#fff;fill-rule:nonzero;"/><rect x="225.143" y="299.244" width="9.738" height="9.738" style="fill:#fff;fill-rule:nonzero;"/><rect x="234.881" y="299.244" width="9.739" height="9.738" style="fill:#fff;fill-rule:nonzero;"/><rect x="244.62" y="299.244" width="9.739" height="9.738" style="fill:#fff;fill-rule:nonzero;"/><rect x="176.45" y="308.982" width="9.738" height="9.739" style="fill:#fff;fill-rule:nonzero;"/><rect x="127.756" y="299.244" width="9.739" height="9.738" style="fill:#fff;fill-rule:nonzero;"/><rect x="147.234" y="299.244" width="9.738" height="9.738" style="fill:#fff;fill-rule:nonzero;"/><rect x="118.018" y="299.244" width="9.738" height="9.738" style="fill:#fff;fill-rule:nonzero;"/><rect x="137.495" y="299.244" width="9.739" height="9.738" style="fill:#fff;fill-rule:nonzero;"/><rect x="176.45" y="299.244" width="9.738" height="9.738" style="fill:#fff;fill-rule:nonzero;"/><rect x="156.972" y="299.244" width="9.739" height="9.738" style="fill:#fff;fill-rule:nonzero;"/><rect x="166.711" y="299.244" width="9.739" height="9.738" style="fill:#fff;fill-rule:nonzero;"/><rect x="166.711" y="328.46" width="9.739" height="9.738" style="fill:#fff;fill-rule:nonzero;"/><path d="M205.665,100.586c-1.035,0.521 -2.059,1.067 -3.116,1.532c-0.385,0.171 -0.486,0.569 -0.613,0.942c-0.12,0.366 -0.271,0.821 -0.663,0.897c-0.505,0.093 -0.857,0.275 -1.111,0.514l5.503,0l0,-3.885Z" style="fill:#fff;fill-rule:nonzero;"/><path d="M98.54,146.689c-3.362,0.59 -6.619,1.597 -9.738,2.944l0,3.531l9.738,0l0,-6.475Z" style="fill:#fff;fill-rule:nonzero;"/><rect x="88.802" y="153.164" width="9.738" height="9.739" style="fill:#f0f2f4;fill-rule:nonzero;"/><path d="M199.415,106.997c-0.326,2.963 -1.439,5.402 -3.488,7.199l0,0.014l9.738,0l0,-9.739l-5.503,0c-0.643,0.604 -0.638,1.588 -0.747,2.526Z" style="fill:#fff;fill-rule:nonzero;"/><path d="M96.059,165.847c0.817,-0.316 1.646,-0.594 2.481,-0.849l0,-2.095l-9.738,0l0,7.198c2.289,-1.631 4.701,-3.077 7.251,-4.254l0.006,0Z" style="fill:#fff;fill-rule:nonzero;"/><path d="M48.392,289.505c0.465,1.202 0.951,2.396 1.455,3.583l0,-3.583l-1.455,0Z" style="fill:#fff;fill-rule:nonzero;"/><path d="M59.586,299.244l0,-9.739l-9.739,0l0,3.583c0.883,2.078 1.826,4.131 2.825,6.156l6.914,0Z" style="fill:#e3e5e9;fill-rule:nonzero;"/><path d="M98.54,328.46l1.482,0c-0.497,-0.35 -0.991,-0.704 -1.482,-1.062l0,1.062Z" style="fill:#fff;fill-rule:nonzero;"/><path d="M97.588,326.701c-0.025,-0.012 -0.044,-0.031 -0.063,-0.044c-3.047,-2.398 -5.954,-4.966 -8.723,-7.672l0,9.475l9.738,0l0,-1.062c-0.317,-0.232 -0.637,-0.461 -0.952,-0.697Z" style="fill:#fff;fill-rule:nonzero;"/><rect x="234.881" y="104.471" width="9.739" height="9.739" style="fill:#f0f2f4;fill-rule:nonzero;"/><rect x="244.62" y="104.471" width="9.739" height="9.739" style="fill:#fff;fill-rule:nonzero;"/><rect x="254.359" y="104.471" width="9.738" height="9.739" style="fill:#f0f2f4;fill-rule:nonzero;"/><path d="M215.404,104.471l0,-6.913c-2.027,0.35 -4.002,0.938 -5.986,1.483c-1.312,0.362 -2.54,0.936 -3.753,1.545l0,3.885l9.739,0Z" style="fill:#d1d4da;fill-rule:nonzero;"/><path d="M49.847,279.767l-4.753,0c0.029,0.097 0.054,0.195 0.083,0.292c0.938,3.185 2.013,6.338 3.215,9.446l1.455,0l0,-9.738Z" style="fill:#fff;fill-rule:nonzero;"/><rect x="264.097" y="104.471" width="9.739" height="9.739" style="fill:#fff;fill-rule:nonzero;"/><rect x="225.143" y="104.471" width="9.738" height="9.739" style="fill:#fff;fill-rule:nonzero;"/><path d="M225.143,104.471l0,-7.728c-2.465,0.208 -4.936,0.394 -7.409,0.535c-0.786,0.047 -1.562,0.148 -2.33,0.28l0,6.913l9.739,0Z" style="fill:#fff;fill-rule:nonzero;"/><rect x="215.404" y="104.471" width="9.739" height="9.739" style="fill:#fff;fill-rule:nonzero;"/><rect x="244.62" y="318.721" width="9.739" height="9.739" style="fill:#fff;fill-rule:nonzero;"/><rect x="215.404" y="318.721" width="9.739" height="9.739" style="fill:#fff;fill-rule:nonzero;"/><rect x="205.665" y="318.721" width="9.739" height="9.739" style="fill:#fff;fill-rule:nonzero;"/><rect x="186.188" y="328.46" width="9.739" height="9.738" style="fill:#fff;fill-rule:nonzero;"/><rect x="195.927" y="328.46" width="9.738" height="9.738" style="fill:#f0f2f4;fill-rule:nonzero;"/><rect x="127.756" y="308.982" width="9.739" height="9.739" style="fill:#fff;fill-rule:nonzero;"/><rect x="225.143" y="318.721" width="9.738" height="9.739" style="fill:#fff;fill-rule:nonzero;"/><rect x="254.359" y="318.721" width="9.738" height="9.739" style="fill:#fff;fill-rule:nonzero;"/><path d="M275.656,114.21c0.123,-3.25 -0.039,-6.509 -0.512,-9.716c-0.001,-0.007 -0.002,-0.015 -0.004,-0.023l-1.304,0l0,9.739l1.82,0Z" style="fill:#fff;fill-rule:nonzero;"/><rect x="234.881" y="318.721" width="9.739" height="9.739" style="fill:#f0f2f4;fill-rule:nonzero;"/><rect x="156.972" y="328.46" width="9.739" height="9.738" style="fill:#fff;fill-rule:nonzero;"/><rect x="176.45" y="328.46" width="9.738" height="9.738" style="fill:#e3e5e9;fill-rule:nonzero;"/><rect x="127.756" y="318.721" width="9.739" height="9.739" style="fill:#d1d4da;fill-rule:nonzero;"/><rect x="137.495" y="318.721" width="9.739" height="9.739" style="fill:#fff;fill-rule:nonzero;"/><rect x="118.018" y="318.721" width="9.738" height="9.739" style="fill:#fff;fill-rule:nonzero;"/><rect x="147.234" y="318.721" width="9.738" height="9.739" style="fill:#fff;fill-rule:nonzero;"/><rect x="156.972" y="318.721" width="9.739" height="9.739" style="fill:#e3e5e9;fill-rule:nonzero;"/><path d="M270.594,324.186c-0.096,-1.831 -0.299,-3.65 -0.534,-5.465l-5.963,0l0,9.739l6.472,0c0.091,-1.417 0.103,-2.84 0.025,-4.274Z" style="fill:#f0f2f4;fill-rule:nonzero;"/><path d="M113.444,318.721c-0.128,3.558 -0.287,6.795 -0.48,9.739l5.054,0l0,-9.739l-4.574,0Z" style="fill:#fff;fill-rule:nonzero;"/><rect x="205.665" y="328.46" width="9.739" height="9.738" style="fill:#fff;fill-rule:nonzero;"/><rect x="195.927" y="308.982" width="9.738" height="9.739" style="fill:#fff;fill-rule:nonzero;"/><rect x="234.881" y="308.982" width="9.739" height="9.739" style="fill:#fff;fill-rule:nonzero;"/><rect x="215.404" y="308.982" width="9.739" height="9.739" style="fill:#fff;fill-rule:nonzero;"/><rect x="205.665" y="308.982" width="9.739" height="9.739" style="fill:#f0f2f4;fill-rule:nonzero;"/><rect x="225.143" y="308.982" width="9.738" height="9.739" style="fill:#e3e5e9;fill-rule:nonzero;"/><path d="M268.995,310.082l-0.006,-0.019c-0.041,-0.363 -0.084,-0.722 -0.126,-1.081l-4.766,0l0,9.739l5.963,0c-0.288,-2.232 -0.626,-4.459 -0.888,-6.693c-0.076,-0.651 -0.133,-1.302 -0.177,-1.946Z" style="fill:#fff;fill-rule:nonzero;"/><path d="M264.097,260.289l0,9.739l8.897,0c0.268,-0.793 0.548,-1.603 0.842,-2.432l0,-7.307l-9.739,0Z" style="fill:#f0f2f4;fill-rule:nonzero;"/><rect x="254.359" y="308.982" width="9.738" height="9.739" style="fill:#fff;fill-rule:nonzero;"/><rect x="244.62" y="308.982" width="9.739" height="9.739" style="fill:#d1d4da;fill-rule:nonzero;"/><rect x="156.972" y="308.982" width="9.739" height="9.739" style="fill:#fff;fill-rule:nonzero;"/><rect x="147.234" y="308.982" width="9.738" height="9.739" style="fill:#d1d4da;fill-rule:nonzero;"/><path d="M273.836,267.596c0.81,-2.288 1.723,-4.719 2.747,-7.307l-2.747,0l0,7.307Z" style="fill:#fff;fill-rule:nonzero;"/><rect x="137.495" y="308.982" width="9.739" height="9.739" style="fill:#fff;fill-rule:nonzero;"/><rect x="166.711" y="308.982" width="9.739" height="9.739" style="fill:#e3e5e9;fill-rule:nonzero;"/><rect x="195.927" y="318.721" width="9.738" height="9.739" style="fill:#f0f2f4;fill-rule:nonzero;"/><rect x="186.188" y="318.721" width="9.739" height="9.739" style="fill:#fff;fill-rule:nonzero;"/><rect x="176.45" y="318.721" width="9.738" height="9.739" style="fill:#d1d4da;fill-rule:nonzero;"/><rect x="166.711" y="318.721" width="9.739" height="9.739" style="fill:#fff;fill-rule:nonzero;"/><rect x="264.097" y="153.164" width="9.739" height="9.739" style="fill:#d1d4da;fill-rule:nonzero;"/><rect x="264.097" y="172.642" width="9.739" height="9.738" style="fill:#d1d4da;fill-rule:nonzero;"/><path d="M273.836,123.948l3.252,0c-1.067,-2.946 -1.605,-6.013 -1.445,-9.21c0.008,-0.176 0.006,-0.352 0.013,-0.528l-1.82,0l0,9.738Z" style="fill:#fff;fill-rule:nonzero;"/><rect x="273.836" y="162.903" width="9.739" height="9.739" style="fill:#fff;fill-rule:nonzero;"/><rect x="264.097" y="162.903" width="9.739" height="9.739" style="fill:#fff;fill-rule:nonzero;"/><rect x="273.836" y="153.164" width="9.739" height="9.739" style="fill:#f0f2f4;fill-rule:nonzero;"/><path d="M273.836,133.687l6.852,0c-0.914,-2.85 -1.933,-5.672 -3.099,-8.453c-0.178,-0.426 -0.345,-0.855 -0.501,-1.286l-3.252,0l0,9.739Z" style="fill:#fff;fill-rule:nonzero;"/><path d="M273.836,143.426l9.534,0c-0.767,-3.283 -1.652,-6.531 -2.682,-9.739l-6.852,0l0,9.739Z" style="fill:#fff;fill-rule:nonzero;"/><rect x="264.097" y="133.687" width="9.739" height="9.739" style="fill:#fff;fill-rule:nonzero;"/><rect x="264.097" y="143.426" width="9.739" height="9.738" style="fill:#fff;fill-rule:nonzero;"/><rect x="264.097" y="192.119" width="9.739" height="9.738" style="fill:#fff;fill-rule:nonzero;"/><rect x="264.097" y="240.812" width="9.739" height="9.739" style="fill:#fff;fill-rule:nonzero;"/><rect x="264.097" y="221.335" width="9.739" height="9.738" style="fill:#fff;fill-rule:nonzero;"/><rect x="264.097" y="182.38" width="9.739" height="9.739" style="fill:#fff;fill-rule:nonzero;"/><rect x="264.097" y="250.551" width="9.739" height="9.738" style="fill:#fff;fill-rule:nonzero;"/><rect x="264.097" y="231.073" width="9.739" height="9.739" style="fill:#fff;fill-rule:nonzero;"/><rect x="264.097" y="211.596" width="9.739" height="9.739" style="fill:#d1d4da;fill-rule:nonzero;"/><path d="M276.583,260.289c1.195,-3.022 2.545,-6.26 4.064,-9.738l-6.811,0l0,9.738l2.747,0Z" style="fill:#fff;fill-rule:nonzero;"/><rect x="264.097" y="201.857" width="9.739" height="9.739" style="fill:#fff;fill-rule:nonzero;"/><rect x="172.714" y="82.665" width="12.172" height="12.172" style="fill:#d1d4da;fill-rule:nonzero;"/><rect x="189.623" y="72.366" width="10.299" height="10.299" style="fill:#f0f2f4;fill-rule:nonzero;"/><rect x="172.49" y="63.987" width="9.63" height="9.63" style="fill:#f0f2f4;fill-rule:nonzero;"/><rect x="187.295" y="56.178" width="9.631" height="9.63" style="fill:#d1d4da;fill-rule:nonzero;"/><rect x="175.351" y="50.092" width="6.086" height="6.086" style="fill:#f0f2f4;fill-rule:nonzero;"/></svg>